<svg width="1440" height="900" viewBox="0 0 1440 900" fill="none" xmlns="http://www.w3.org/2000/svg">
<g clip-path="url(#clip0_681_1394)">
<rect width="1440" height="900" fill="#16203B"/>
<path d="M85.353 56.853C85.441 56.853 85.529 56.8713 85.617 56.908C85.705 56.9373 85.7893 56.9923 85.87 57.073L87.344 58.624C86.6987 59.4673 85.8883 60.1053 84.913 60.538C83.945 60.9633 82.7973 61.176 81.47 61.176C80.2527 61.176 79.16 60.9707 78.192 60.56C77.2313 60.142 76.4137 59.57 75.739 58.844C75.0717 58.1107 74.5583 57.2453 74.199 56.248C73.8397 55.2433 73.66 54.1543 73.66 52.981C73.66 51.7857 73.8543 50.6893 74.243 49.692C74.6317 48.6873 75.178 47.822 75.882 47.096C76.586 46.37 77.4293 45.8053 78.412 45.402C79.3947 44.9987 80.4763 44.797 81.657 44.797C82.2583 44.797 82.823 44.852 83.351 44.962C83.8863 45.0647 84.385 45.2113 84.847 45.402C85.309 45.5853 85.7343 45.809 86.123 46.073C86.5117 46.337 86.8563 46.623 87.157 46.931L85.903 48.614C85.8223 48.7167 85.727 48.812 85.617 48.9C85.507 48.9807 85.353 49.021 85.155 49.021C85.023 49.021 84.8983 48.9917 84.781 48.933C84.6637 48.8743 84.539 48.8047 84.407 48.724C84.275 48.636 84.1283 48.5443 83.967 48.449C83.813 48.3463 83.626 48.2547 83.406 48.174C83.1933 48.086 82.9403 48.0127 82.647 47.954C82.361 47.8953 82.0237 47.866 81.635 47.866C81.019 47.866 80.4543 47.9797 79.941 48.207C79.435 48.4343 78.995 48.768 78.621 49.208C78.2543 49.6407 77.9683 50.176 77.763 50.814C77.565 51.4447 77.466 52.167 77.466 52.981C77.466 53.8023 77.576 54.532 77.796 55.17C78.0233 55.808 78.3277 56.347 78.709 56.787C79.0977 57.2197 79.5487 57.5497 80.062 57.777C80.5753 58.0043 81.1253 58.118 81.712 58.118C82.0493 58.118 82.3573 58.1033 82.636 58.074C82.9147 58.0373 83.175 57.9823 83.417 57.909C83.659 57.8283 83.8863 57.7257 84.099 57.601C84.3117 57.469 84.528 57.304 84.748 57.106C84.836 57.0327 84.9313 56.974 85.034 56.93C85.1367 56.8787 85.243 56.853 85.353 56.853ZM108.917 52.651C108.66 52.365 108.382 52.167 108.081 52.057C107.78 51.9397 107.465 51.881 107.135 51.881C106.82 51.881 106.53 51.9433 106.266 52.068C106.002 52.1927 105.771 52.3943 105.573 52.673C105.382 52.9443 105.232 53.3 105.122 53.74C105.012 54.18 104.957 54.7117 104.957 55.335C104.957 55.9363 105.001 56.4423 105.089 56.853C105.177 57.2637 105.298 57.5973 105.452 57.854C105.613 58.1033 105.804 58.283 106.024 58.393C106.244 58.503 106.49 58.558 106.761 58.558C107.01 58.558 107.234 58.536 107.432 58.492C107.637 58.4407 107.824 58.371 107.993 58.283C108.162 58.195 108.319 58.085 108.466 57.953C108.62 57.8137 108.77 57.656 108.917 57.48V52.651ZM112.327 44.533V61H110.215C109.79 61 109.511 60.8093 109.379 60.428L109.115 59.559C108.888 59.801 108.649 60.021 108.4 60.219C108.151 60.417 107.879 60.5893 107.586 60.736C107.3 60.8753 106.988 60.9817 106.651 61.055C106.321 61.1357 105.962 61.176 105.573 61.176C104.979 61.176 104.429 61.044 103.923 60.78C103.417 60.516 102.981 60.1347 102.614 59.636C102.247 59.1373 101.958 58.5287 101.745 57.81C101.54 57.084 101.437 56.259 101.437 55.335C101.437 54.4843 101.554 53.696 101.789 52.97C102.024 52.2367 102.354 51.606 102.779 51.078C103.212 50.5427 103.729 50.1247 104.33 49.824C104.931 49.5233 105.595 49.373 106.321 49.373C106.915 49.373 107.414 49.4573 107.817 49.626C108.22 49.7947 108.587 50.022 108.917 50.308V44.533H112.327ZM122.166 53.927C122.166 53.6557 122.129 53.3917 122.056 53.135C121.99 52.8783 121.876 52.651 121.715 52.453C121.561 52.2477 121.355 52.0827 121.099 51.958C120.842 51.8333 120.53 51.771 120.164 51.771C119.518 51.771 119.012 51.958 118.646 52.332C118.279 52.6987 118.037 53.2303 117.92 53.927H122.166ZM117.876 55.907C117.986 56.8603 118.275 57.5533 118.745 57.986C119.214 58.4113 119.819 58.624 120.56 58.624C120.956 58.624 121.297 58.5763 121.583 58.481C121.869 58.3857 122.122 58.2793 122.342 58.162C122.569 58.0447 122.774 57.9383 122.958 57.843C123.148 57.7477 123.346 57.7 123.552 57.7C123.823 57.7 124.028 57.799 124.168 57.997L125.158 59.218C124.806 59.6213 124.424 59.9513 124.014 60.208C123.61 60.4573 123.192 60.6553 122.76 60.802C122.334 60.9413 121.905 61.0367 121.473 61.088C121.047 61.1467 120.64 61.176 120.252 61.176C119.452 61.176 118.701 61.0477 117.997 60.791C117.3 60.527 116.688 60.1383 116.16 59.625C115.639 59.1117 115.225 58.4737 114.917 57.711C114.616 56.9483 114.466 56.061 114.466 55.049C114.466 54.2863 114.594 53.564 114.851 52.882C115.115 52.2 115.489 51.6023 115.973 51.089C116.464 50.5757 117.054 50.1687 117.744 49.868C118.44 49.5673 119.225 49.417 120.098 49.417C120.853 49.417 121.542 49.5343 122.166 49.769C122.796 50.0037 123.335 50.3447 123.783 50.792C124.237 51.2393 124.589 51.7893 124.839 52.442C125.095 53.0873 125.224 53.8207 125.224 54.642C125.224 54.8987 125.213 55.1077 125.191 55.269C125.169 55.4303 125.128 55.5587 125.07 55.654C125.011 55.7493 124.93 55.8153 124.828 55.852C124.732 55.8887 124.608 55.907 124.454 55.907H117.876Z" fill="white"/>
<path d="M94.0327 49.417C94.898 49.417 95.6864 49.5527 96.3977 49.824C97.109 50.0953 97.7177 50.484 98.2237 50.99C98.737 51.496 99.133 52.112 99.4117 52.838C99.6977 53.5567 99.8407 54.367 99.8407 55.269C99.8407 56.1783 99.6977 56.9997 99.4117 57.733C99.133 58.459 98.737 59.0787 98.2237 59.592C97.7177 60.098 97.109 60.4903 96.3977 60.769C95.6864 61.0403 94.898 61.176 94.0327 61.176C93.16 61.176 92.3644 61.0403 91.6457 60.769C90.9344 60.4903 90.3184 60.098 89.7977 59.592C89.2844 59.0787 88.8847 58.459 88.5987 57.733C88.32 56.9997 88.1807 56.1783 88.1807 55.269C88.1807 54.367 88.32 53.5567 88.5987 52.838C88.8847 52.112 89.2844 51.496 89.7977 50.99C90.3184 50.484 90.9344 50.0953 91.6457 49.824C92.3644 49.5527 93.16 49.417 94.0327 49.417ZM94.0327 58.646C94.8174 58.646 95.393 58.371 95.7597 57.821C96.1337 57.2637 96.3207 56.4203 96.3207 55.291C96.3207 54.1617 96.1337 53.322 95.7597 52.772C95.393 52.222 94.8174 51.947 94.0327 51.947C93.226 51.947 92.6357 52.222 92.2617 52.772C91.8877 53.322 91.7007 54.1617 91.7007 55.291C91.7007 56.4203 91.8877 57.2637 92.2617 57.821C92.6357 58.371 93.226 58.646 94.0327 58.646Z" fill="#E3C42E"/>
<path d="M131.248 51.463H131.842C132.392 51.463 132.788 51.2907 133.03 50.946L136.638 45.71C136.85 45.4313 137.078 45.2407 137.32 45.138C137.569 45.028 137.877 44.973 138.244 44.973H141.478L136.726 51.452C136.388 51.8993 136.025 52.222 135.637 52.42C135.915 52.5227 136.168 52.6657 136.396 52.849C136.623 53.0323 136.836 53.2707 137.034 53.564L141.874 61H138.552C138.339 61 138.156 60.9853 138.002 60.956C137.855 60.9267 137.727 60.8827 137.617 60.824C137.507 60.7653 137.411 60.6957 137.331 60.615C137.25 60.527 137.173 60.428 137.1 60.318L133.47 54.741C133.338 54.5357 133.169 54.3927 132.964 54.312C132.766 54.224 132.494 54.18 132.15 54.18H131.248V61H127.53V44.973H131.248V51.463ZM149.407 53.927C149.407 53.6557 149.37 53.3917 149.297 53.135C149.231 52.8783 149.117 52.651 148.956 52.453C148.802 52.2477 148.597 52.0827 148.34 51.958C148.083 51.8333 147.772 51.771 147.405 51.771C146.76 51.771 146.254 51.958 145.887 52.332C145.52 52.6987 145.278 53.2303 145.161 53.927H149.407ZM145.117 55.907C145.227 56.8603 145.517 57.5533 145.986 57.986C146.455 58.4113 147.06 58.624 147.801 58.624C148.197 58.624 148.538 58.5763 148.824 58.481C149.11 58.3857 149.363 58.2793 149.583 58.162C149.81 58.0447 150.016 57.9383 150.199 57.843C150.39 57.7477 150.588 57.7 150.793 57.7C151.064 57.7 151.27 57.799 151.409 57.997L152.399 59.218C152.047 59.6213 151.666 59.9513 151.255 60.208C150.852 60.4573 150.434 60.6553 150.001 60.802C149.576 60.9413 149.147 61.0367 148.714 61.088C148.289 61.1467 147.882 61.176 147.493 61.176C146.694 61.176 145.942 61.0477 145.238 60.791C144.541 60.527 143.929 60.1383 143.401 59.625C142.88 59.1117 142.466 58.4737 142.158 57.711C141.857 56.9483 141.707 56.061 141.707 55.049C141.707 54.2863 141.835 53.564 142.092 52.882C142.356 52.2 142.73 51.6023 143.214 51.089C143.705 50.5757 144.296 50.1687 144.985 49.868C145.682 49.5673 146.466 49.417 147.339 49.417C148.094 49.417 148.784 49.5343 149.407 49.769C150.038 50.0037 150.577 50.3447 151.024 50.792C151.479 51.2393 151.831 51.7893 152.08 52.442C152.337 53.0873 152.465 53.8207 152.465 54.642C152.465 54.8987 152.454 55.1077 152.432 55.269C152.41 55.4303 152.37 55.5587 152.311 55.654C152.252 55.7493 152.172 55.8153 152.069 55.852C151.974 55.8887 151.849 55.907 151.695 55.907H145.117ZM157.801 51.353C158.153 50.737 158.557 50.253 159.011 49.901C159.473 49.549 160.001 49.373 160.595 49.373C161.109 49.373 161.527 49.494 161.849 49.736L161.629 52.244C161.593 52.4053 161.53 52.5153 161.442 52.574C161.362 52.6327 161.248 52.662 161.101 52.662C161.043 52.662 160.966 52.6583 160.87 52.651C160.775 52.6437 160.676 52.6363 160.573 52.629C160.471 52.6143 160.364 52.6033 160.254 52.596C160.152 52.5813 160.056 52.574 159.968 52.574C159.47 52.574 159.07 52.706 158.769 52.97C158.476 53.234 158.227 53.6007 158.021 54.07V61H154.611V49.593H156.635C156.804 49.593 156.943 49.6077 157.053 49.637C157.171 49.6663 157.266 49.714 157.339 49.78C157.42 49.8387 157.479 49.9193 157.515 50.022C157.559 50.1247 157.596 50.2493 157.625 50.396L157.801 51.353ZM170.199 52.651C169.942 52.365 169.664 52.167 169.363 52.057C169.062 51.9397 168.747 51.881 168.417 51.881C168.102 51.881 167.812 51.9433 167.548 52.068C167.284 52.1927 167.053 52.3943 166.855 52.673C166.664 52.9443 166.514 53.3 166.404 53.74C166.294 54.18 166.239 54.7117 166.239 55.335C166.239 55.9363 166.283 56.4423 166.371 56.853C166.459 57.2637 166.58 57.5973 166.734 57.854C166.895 58.1033 167.086 58.283 167.306 58.393C167.526 58.503 167.772 58.558 168.043 58.558C168.292 58.558 168.516 58.536 168.714 58.492C168.919 58.4407 169.106 58.371 169.275 58.283C169.444 58.195 169.601 58.085 169.748 57.953C169.902 57.8137 170.052 57.656 170.199 57.48V52.651ZM173.609 44.533V61H171.497C171.072 61 170.793 60.8093 170.661 60.428L170.397 59.559C170.17 59.801 169.931 60.021 169.682 60.219C169.433 60.417 169.161 60.5893 168.868 60.736C168.582 60.8753 168.27 60.9817 167.933 61.055C167.603 61.1357 167.244 61.176 166.855 61.176C166.261 61.176 165.711 61.044 165.205 60.78C164.699 60.516 164.263 60.1347 163.896 59.636C163.529 59.1373 163.24 58.5287 163.027 57.81C162.822 57.084 162.719 56.259 162.719 55.335C162.719 54.4843 162.836 53.696 163.071 52.97C163.306 52.2367 163.636 51.606 164.061 51.078C164.494 50.5427 165.011 50.1247 165.612 49.824C166.213 49.5233 166.877 49.373 167.603 49.373C168.197 49.373 168.696 49.4573 169.099 49.626C169.502 49.7947 169.869 50.022 170.199 50.308V44.533H173.609ZM181.611 49.417C182.476 49.417 183.264 49.5527 183.976 49.824C184.687 50.0953 185.296 50.484 185.802 50.99C186.315 51.496 186.711 52.112 186.99 52.838C187.276 53.5567 187.419 54.367 187.419 55.269C187.419 56.1783 187.276 56.9997 186.99 57.733C186.711 58.459 186.315 59.0787 185.802 59.592C185.296 60.098 184.687 60.4903 183.976 60.769C183.264 61.0403 182.476 61.176 181.611 61.176C180.738 61.176 179.942 61.0403 179.224 60.769C178.512 60.4903 177.896 60.098 177.376 59.592C176.862 59.0787 176.463 58.459 176.177 57.733C175.898 56.9997 175.759 56.1783 175.759 55.269C175.759 54.367 175.898 53.5567 176.177 52.838C176.463 52.112 176.862 51.496 177.376 50.99C177.896 50.484 178.512 50.0953 179.224 49.824C179.942 49.5527 180.738 49.417 181.611 49.417ZM181.611 58.646C182.395 58.646 182.971 58.371 183.338 57.821C183.712 57.2637 183.899 56.4203 183.899 55.291C183.899 54.1617 183.712 53.322 183.338 52.772C182.971 52.222 182.395 51.947 181.611 51.947C180.804 51.947 180.214 52.222 179.84 52.772C179.466 53.322 179.279 54.1617 179.279 55.291C179.279 56.4203 179.466 57.2637 179.84 57.821C180.214 58.371 180.804 58.646 181.611 58.646ZM196.825 52.09C196.737 52.2293 196.642 52.3283 196.539 52.387C196.444 52.4457 196.319 52.475 196.165 52.475C196.004 52.475 195.842 52.442 195.681 52.376C195.52 52.3027 195.344 52.2257 195.153 52.145C194.97 52.0643 194.761 51.991 194.526 51.925C194.291 51.8517 194.024 51.815 193.723 51.815C193.29 51.815 192.957 51.8993 192.722 52.068C192.495 52.2293 192.381 52.4567 192.381 52.75C192.381 52.9627 192.454 53.1387 192.601 53.278C192.755 53.4173 192.957 53.542 193.206 53.652C193.455 53.7547 193.738 53.8537 194.053 53.949C194.368 54.0443 194.691 54.1507 195.021 54.268C195.351 54.3853 195.674 54.5247 195.989 54.686C196.304 54.84 196.587 55.0343 196.836 55.269C197.085 55.4963 197.283 55.775 197.43 56.105C197.584 56.435 197.661 56.831 197.661 57.293C197.661 57.8577 197.558 58.3783 197.353 58.855C197.148 59.3317 196.84 59.7423 196.429 60.087C196.026 60.4317 195.523 60.6993 194.922 60.89C194.328 61.0807 193.642 61.176 192.865 61.176C192.476 61.176 192.088 61.1393 191.699 61.066C191.31 60.9927 190.933 60.8937 190.566 60.769C190.207 60.6443 189.873 60.4977 189.565 60.329C189.257 60.153 188.993 59.966 188.773 59.768L189.565 58.514C189.653 58.3673 189.763 58.2537 189.895 58.173C190.034 58.085 190.21 58.041 190.423 58.041C190.621 58.041 190.797 58.085 190.951 58.173C191.112 58.261 191.285 58.3563 191.468 58.459C191.651 58.5617 191.864 58.657 192.106 58.745C192.355 58.833 192.667 58.877 193.041 58.877C193.305 58.877 193.529 58.8513 193.712 58.8C193.895 58.7413 194.042 58.6643 194.152 58.569C194.262 58.4737 194.343 58.3673 194.394 58.25C194.445 58.1327 194.471 58.0117 194.471 57.887C194.471 57.6597 194.394 57.4727 194.24 57.326C194.086 57.1793 193.884 57.0547 193.635 56.952C193.386 56.842 193.1 56.743 192.777 56.655C192.462 56.5597 192.139 56.4533 191.809 56.336C191.479 56.2187 191.153 56.0793 190.83 55.918C190.515 55.7493 190.232 55.5403 189.983 55.291C189.734 55.0343 189.532 54.7227 189.378 54.356C189.224 53.9893 189.147 53.5457 189.147 53.025C189.147 52.541 189.239 52.0827 189.422 51.65C189.613 51.21 189.895 50.825 190.269 50.495C190.643 50.165 191.112 49.9047 191.677 49.714C192.242 49.516 192.902 49.417 193.657 49.417C194.068 49.417 194.464 49.4537 194.845 49.527C195.234 49.6003 195.597 49.703 195.934 49.835C196.271 49.967 196.579 50.1247 196.858 50.308C197.137 50.484 197.382 50.6783 197.595 50.891L196.825 52.09Z" fill="#15C0FD"/>
<ellipse cx="992.5" cy="177.5" rx="67.5" ry="65.5" fill="#FFF9F9" fill-opacity="0.15"/>
<ellipse cx="76.5" cy="847" rx="128.5" ry="113" fill="#184279" fill-opacity="0.35"/>
<ellipse cx="1098.5" cy="230" rx="128.5" ry="113" fill="#184279" fill-opacity="0.35"/>
</g>
<defs>
<clipPath id="clip0_681_1394">
<rect width="1440" height="900" fill="white"/>
</clipPath>
</defs>
</svg>
