<svg width="125" height="17" viewBox="0 0 125 17" fill="none" xmlns="http://www.w3.org/2000/svg">
<path d="M12.353 12.353C12.441 12.353 12.529 12.3713 12.617 12.408C12.705 12.4373 12.7893 12.4923 12.87 12.573L14.344 14.124C13.6987 14.9673 12.8883 15.6053 11.913 16.038C10.945 16.4633 9.79733 16.676 8.47 16.676C7.25267 16.676 6.16 16.4707 5.192 16.06C4.23133 15.642 3.41367 15.07 2.739 14.344C2.07167 13.6107 1.55833 12.7453 1.199 11.748C0.839667 10.7433 0.66 9.65433 0.66 8.481C0.66 7.28567 0.854333 6.18933 1.243 5.192C1.63167 4.18733 2.178 3.322 2.882 2.596C3.586 1.87 4.42933 1.30533 5.412 0.901999C6.39467 0.498666 7.47633 0.296999 8.657 0.296999C9.25833 0.296999 9.823 0.351999 10.351 0.461999C10.8863 0.564666 11.385 0.711332 11.847 0.901999C12.309 1.08533 12.7343 1.309 13.123 1.573C13.5117 1.837 13.8563 2.123 14.157 2.431L12.903 4.114C12.8223 4.21667 12.727 4.312 12.617 4.4C12.507 4.48067 12.353 4.521 12.155 4.521C12.023 4.521 11.8983 4.49167 11.781 4.433C11.6637 4.37433 11.539 4.30467 11.407 4.224C11.275 4.136 11.1283 4.04433 10.967 3.949C10.813 3.84633 10.626 3.75467 10.406 3.674C10.1933 3.586 9.94033 3.51267 9.647 3.454C9.361 3.39533 9.02367 3.366 8.635 3.366C8.019 3.366 7.45433 3.47967 6.941 3.707C6.435 3.93433 5.995 4.268 5.621 4.708C5.25433 5.14067 4.96833 5.676 4.763 6.314C4.565 6.94467 4.466 7.667 4.466 8.481C4.466 9.30233 4.576 10.032 4.796 10.67C5.02333 11.308 5.32767 11.847 5.709 12.287C6.09767 12.7197 6.54867 13.0497 7.062 13.277C7.57533 13.5043 8.12533 13.618 8.712 13.618C9.04933 13.618 9.35733 13.6033 9.636 13.574C9.91467 13.5373 10.175 13.4823 10.417 13.409C10.659 13.3283 10.8863 13.2257 11.099 13.101C11.3117 12.969 11.528 12.804 11.748 12.606C11.836 12.5327 11.9313 12.474 12.034 12.43C12.1367 12.3787 12.243 12.353 12.353 12.353ZM35.9169 8.151C35.6602 7.865 35.3816 7.667 35.0809 7.557C34.7802 7.43967 34.4649 7.381 34.1349 7.381C33.8196 7.381 33.5299 7.44333 33.2659 7.568C33.0019 7.69267 32.7709 7.89433 32.5729 8.173C32.3822 8.44433 32.2319 8.8 32.1219 9.24C32.0119 9.68 31.9569 10.2117 31.9569 10.835C31.9569 11.4363 32.0009 11.9423 32.0889 12.353C32.1769 12.7637 32.2979 13.0973 32.4519 13.354C32.6132 13.6033 32.8039 13.783 33.0239 13.893C33.2439 14.003 33.4896 14.058 33.7609 14.058C34.0102 14.058 34.2339 14.036 34.4319 13.992C34.6372 13.9407 34.8242 13.871 34.9929 13.783C35.1616 13.695 35.3192 13.585 35.4659 13.453C35.6199 13.3137 35.7702 13.156 35.9169 12.98V8.151ZM39.3269 0.0329989V16.5H37.2149C36.7896 16.5 36.5109 16.3093 36.3789 15.928L36.1149 15.059C35.8876 15.301 35.6492 15.521 35.3999 15.719C35.1506 15.917 34.8792 16.0893 34.5859 16.236C34.2999 16.3753 33.9882 16.4817 33.6509 16.555C33.3209 16.6357 32.9616 16.676 32.5729 16.676C31.9789 16.676 31.4289 16.544 30.9229 16.28C30.4169 16.016 29.9806 15.6347 29.6139 15.136C29.2472 14.6373 28.9576 14.0287 28.7449 13.31C28.5396 12.584 28.4369 11.759 28.4369 10.835C28.4369 9.98433 28.5542 9.196 28.7889 8.47C29.0236 7.73667 29.3536 7.106 29.7789 6.578C30.2116 6.04267 30.7286 5.62467 31.3299 5.324C31.9312 5.02333 32.5949 4.873 33.3209 4.873C33.9149 4.873 34.4136 4.95733 34.8169 5.126C35.2202 5.29467 35.5869 5.522 35.9169 5.808V0.0329989H39.3269ZM49.1657 9.427C49.1657 9.15567 49.129 8.89167 49.0557 8.635C48.9897 8.37833 48.876 8.151 48.7147 7.953C48.5607 7.74767 48.3554 7.58267 48.0987 7.458C47.842 7.33333 47.5304 7.271 47.1637 7.271C46.5184 7.271 46.0124 7.458 45.6457 7.832C45.279 8.19867 45.037 8.73033 44.9197 9.427H49.1657ZM44.8757 11.407C44.9857 12.3603 45.2754 13.0533 45.7447 13.486C46.214 13.9113 46.819 14.124 47.5597 14.124C47.9557 14.124 48.2967 14.0763 48.5827 13.981C48.8687 13.8857 49.1217 13.7793 49.3417 13.662C49.569 13.5447 49.7744 13.4383 49.9577 13.343C50.1484 13.2477 50.3464 13.2 50.5517 13.2C50.823 13.2 51.0284 13.299 51.1677 13.497L52.1577 14.718C51.8057 15.1213 51.4244 15.4513 51.0137 15.708C50.6104 15.9573 50.1924 16.1553 49.7597 16.302C49.3344 16.4413 48.9054 16.5367 48.4727 16.588C48.0474 16.6467 47.6404 16.676 47.2517 16.676C46.4524 16.676 45.7007 16.5477 44.9967 16.291C44.3 16.027 43.6877 15.6383 43.1597 15.125C42.639 14.6117 42.2247 13.9737 41.9167 13.211C41.616 12.4483 41.4657 11.561 41.4657 10.549C41.4657 9.78633 41.594 9.064 41.8507 8.382C42.1147 7.7 42.4887 7.10233 42.9727 6.589C43.464 6.07567 44.0544 5.66867 44.7437 5.368C45.4404 5.06733 46.225 4.917 47.0977 4.917C47.853 4.917 48.5424 5.03433 49.1657 5.269C49.7964 5.50367 50.3354 5.84467 50.7827 6.292C51.2374 6.73933 51.5894 7.28933 51.8387 7.942C52.0954 8.58733 52.2237 9.32067 52.2237 10.142C52.2237 10.3987 52.2127 10.6077 52.1907 10.769C52.1687 10.9303 52.1284 11.0587 52.0697 11.154C52.011 11.2493 51.9304 11.3153 51.8277 11.352C51.7324 11.3887 51.6077 11.407 51.4537 11.407H44.8757Z" fill="white"/>
<path d="M21.0327 4.917C21.898 4.917 22.6864 5.05267 23.3977 5.324C24.109 5.59533 24.7177 5.984 25.2237 6.49C25.737 6.996 26.133 7.612 26.4117 8.338C26.6977 9.05667 26.8407 9.867 26.8407 10.769C26.8407 11.6783 26.6977 12.4997 26.4117 13.233C26.133 13.959 25.737 14.5787 25.2237 15.092C24.7177 15.598 24.109 15.9903 23.3977 16.269C22.6864 16.5403 21.898 16.676 21.0327 16.676C20.16 16.676 19.3644 16.5403 18.6457 16.269C17.9344 15.9903 17.3184 15.598 16.7977 15.092C16.2844 14.5787 15.8847 13.959 15.5987 13.233C15.32 12.4997 15.1807 11.6783 15.1807 10.769C15.1807 9.867 15.32 9.05667 15.5987 8.338C15.8847 7.612 16.2844 6.996 16.7977 6.49C17.3184 5.984 17.9344 5.59533 18.6457 5.324C19.3644 5.05267 20.16 4.917 21.0327 4.917ZM21.0327 14.146C21.8174 14.146 22.393 13.871 22.7597 13.321C23.1337 12.7637 23.3207 11.9203 23.3207 10.791C23.3207 9.66167 23.1337 8.822 22.7597 8.272C22.393 7.722 21.8174 7.447 21.0327 7.447C20.226 7.447 19.6357 7.722 19.2617 8.272C18.8877 8.822 18.7007 9.66167 18.7007 10.791C18.7007 11.9203 18.8877 12.7637 19.2617 13.321C19.6357 13.871 20.226 14.146 21.0327 14.146Z" fill="#E3C42E"/>
<path d="M58.2477 6.963H58.8417C59.3917 6.963 59.7877 6.79067 60.0297 6.446L63.6377 1.21C63.8504 0.931332 64.0777 0.740666 64.3197 0.638C64.5691 0.528 64.8771 0.473 65.2437 0.473H68.4777L63.7257 6.952C63.3884 7.39933 63.0254 7.722 62.6367 7.92C62.9154 8.02267 63.1684 8.16567 63.3957 8.349C63.6231 8.53233 63.8357 8.77067 64.0337 9.064L68.8737 16.5H65.5517C65.3391 16.5 65.1557 16.4853 65.0017 16.456C64.8551 16.4267 64.7267 16.3827 64.6167 16.324C64.5067 16.2653 64.4114 16.1957 64.3307 16.115C64.2501 16.027 64.1731 15.928 64.0997 15.818L60.4697 10.241C60.3377 10.0357 60.1691 9.89267 59.9637 9.812C59.7657 9.724 59.4944 9.68 59.1497 9.68H58.2477V16.5H54.5297V0.473H58.2477V6.963ZM76.407 9.427C76.407 9.15567 76.3704 8.89167 76.297 8.635C76.231 8.37833 76.1174 8.151 75.956 7.953C75.802 7.74767 75.5967 7.58267 75.34 7.458C75.0834 7.33333 74.7717 7.271 74.405 7.271C73.7597 7.271 73.2537 7.458 72.887 7.832C72.5204 8.19867 72.2784 8.73033 72.161 9.427H76.407ZM72.117 11.407C72.227 12.3603 72.5167 13.0533 72.986 13.486C73.4554 13.9113 74.0604 14.124 74.801 14.124C75.197 14.124 75.538 14.0763 75.824 13.981C76.11 13.8857 76.363 13.7793 76.583 13.662C76.8104 13.5447 77.0157 13.4383 77.199 13.343C77.3897 13.2477 77.5877 13.2 77.793 13.2C78.0644 13.2 78.2697 13.299 78.409 13.497L79.399 14.718C79.047 15.1213 78.6657 15.4513 78.255 15.708C77.8517 15.9573 77.4337 16.1553 77.001 16.302C76.5757 16.4413 76.1467 16.5367 75.714 16.588C75.2887 16.6467 74.8817 16.676 74.493 16.676C73.6937 16.676 72.942 16.5477 72.238 16.291C71.5414 16.027 70.929 15.6383 70.401 15.125C69.8804 14.6117 69.466 13.9737 69.158 13.211C68.8574 12.4483 68.707 11.561 68.707 10.549C68.707 9.78633 68.8354 9.064 69.092 8.382C69.356 7.7 69.73 7.10233 70.214 6.589C70.7054 6.07567 71.2957 5.66867 71.985 5.368C72.6817 5.06733 73.4664 4.917 74.339 4.917C75.0944 4.917 75.7837 5.03433 76.407 5.269C77.0377 5.50367 77.5767 5.84467 78.024 6.292C78.4787 6.73933 78.8307 7.28933 79.08 7.942C79.3367 8.58733 79.465 9.32067 79.465 10.142C79.465 10.3987 79.454 10.6077 79.432 10.769C79.41 10.9303 79.3697 11.0587 79.311 11.154C79.2524 11.2493 79.1717 11.3153 79.069 11.352C78.9737 11.3887 78.849 11.407 78.695 11.407H72.117ZM84.8014 6.853C85.1534 6.237 85.5567 5.753 86.0114 5.401C86.4734 5.049 87.0014 4.873 87.5954 4.873C88.1087 4.873 88.5267 4.994 88.8494 5.236L88.6294 7.744C88.5927 7.90533 88.5304 8.01533 88.4424 8.074C88.3617 8.13267 88.2481 8.162 88.1014 8.162C88.0427 8.162 87.9657 8.15833 87.8704 8.151C87.7751 8.14367 87.6761 8.13633 87.5734 8.129C87.4707 8.11433 87.3644 8.10333 87.2544 8.096C87.1517 8.08133 87.0564 8.074 86.9684 8.074C86.4697 8.074 86.0701 8.206 85.7694 8.47C85.4761 8.734 85.2267 9.10067 85.0214 9.57V16.5H81.6114V5.093H83.6354C83.8041 5.093 83.9434 5.10767 84.0534 5.137C84.1707 5.16633 84.2661 5.214 84.3394 5.28C84.4201 5.33867 84.4787 5.41933 84.5154 5.522C84.5594 5.62467 84.5961 5.74933 84.6254 5.896L84.8014 6.853ZM97.1989 8.151C96.9423 7.865 96.6636 7.667 96.3629 7.557C96.0623 7.43967 95.7469 7.381 95.4169 7.381C95.1016 7.381 94.8119 7.44333 94.5479 7.568C94.2839 7.69267 94.0529 7.89433 93.8549 8.173C93.6643 8.44433 93.5139 8.8 93.4039 9.24C93.2939 9.68 93.2389 10.2117 93.2389 10.835C93.2389 11.4363 93.2829 11.9423 93.3709 12.353C93.4589 12.7637 93.5799 13.0973 93.7339 13.354C93.8953 13.6033 94.0859 13.783 94.3059 13.893C94.5259 14.003 94.7716 14.058 95.0429 14.058C95.2923 14.058 95.5159 14.036 95.7139 13.992C95.9193 13.9407 96.1063 13.871 96.2749 13.783C96.4436 13.695 96.6013 13.585 96.7479 13.453C96.9019 13.3137 97.0523 13.156 97.1989 12.98V8.151ZM100.609 0.0329989V16.5H98.4969C98.0716 16.5 97.7929 16.3093 97.6609 15.928L97.3969 15.059C97.1696 15.301 96.9313 15.521 96.6819 15.719C96.4326 15.917 96.1613 16.0893 95.8679 16.236C95.5819 16.3753 95.2703 16.4817 94.9329 16.555C94.6029 16.6357 94.2436 16.676 93.8549 16.676C93.2609 16.676 92.7109 16.544 92.2049 16.28C91.6989 16.016 91.2626 15.6347 90.8959 15.136C90.5293 14.6373 90.2396 14.0287 90.0269 13.31C89.8216 12.584 89.7189 11.759 89.7189 10.835C89.7189 9.98433 89.8363 9.196 90.0709 8.47C90.3056 7.73667 90.6356 7.106 91.0609 6.578C91.4936 6.04267 92.0106 5.62467 92.6119 5.324C93.2133 5.02333 93.8769 4.873 94.6029 4.873C95.1969 4.873 95.6956 4.95733 96.0989 5.126C96.5023 5.29467 96.8689 5.522 97.1989 5.808V0.0329989H100.609ZM108.611 4.917C109.476 4.917 110.264 5.05267 110.976 5.324C111.687 5.59533 112.296 5.984 112.802 6.49C113.315 6.996 113.711 7.612 113.99 8.338C114.276 9.05667 114.419 9.867 114.419 10.769C114.419 11.6783 114.276 12.4997 113.99 13.233C113.711 13.959 113.315 14.5787 112.802 15.092C112.296 15.598 111.687 15.9903 110.976 16.269C110.264 16.5403 109.476 16.676 108.611 16.676C107.738 16.676 106.942 16.5403 106.224 16.269C105.512 15.9903 104.896 15.598 104.376 15.092C103.862 14.5787 103.463 13.959 103.177 13.233C102.898 12.4997 102.759 11.6783 102.759 10.769C102.759 9.867 102.898 9.05667 103.177 8.338C103.463 7.612 103.862 6.996 104.376 6.49C104.896 5.984 105.512 5.59533 106.224 5.324C106.942 5.05267 107.738 4.917 108.611 4.917ZM108.611 14.146C109.395 14.146 109.971 13.871 110.338 13.321C110.712 12.7637 110.899 11.9203 110.899 10.791C110.899 9.66167 110.712 8.822 110.338 8.272C109.971 7.722 109.395 7.447 108.611 7.447C107.804 7.447 107.214 7.722 106.84 8.272C106.466 8.822 106.279 9.66167 106.279 10.791C106.279 11.9203 106.466 12.7637 106.84 13.321C107.214 13.871 107.804 14.146 108.611 14.146ZM123.825 7.59C123.737 7.72933 123.642 7.82833 123.539 7.887C123.444 7.94567 123.319 7.975 123.165 7.975C123.004 7.975 122.842 7.942 122.681 7.876C122.52 7.80267 122.344 7.72567 122.153 7.645C121.97 7.56433 121.761 7.491 121.526 7.425C121.291 7.35167 121.024 7.315 120.723 7.315C120.29 7.315 119.957 7.39933 119.722 7.568C119.495 7.72933 119.381 7.95667 119.381 8.25C119.381 8.46267 119.454 8.63867 119.601 8.778C119.755 8.91733 119.957 9.042 120.206 9.152C120.455 9.25467 120.738 9.35367 121.053 9.449C121.368 9.54433 121.691 9.65067 122.021 9.768C122.351 9.88533 122.674 10.0247 122.989 10.186C123.304 10.34 123.587 10.5343 123.836 10.769C124.085 10.9963 124.283 11.275 124.43 11.605C124.584 11.935 124.661 12.331 124.661 12.793C124.661 13.3577 124.558 13.8783 124.353 14.355C124.148 14.8317 123.84 15.2423 123.429 15.587C123.026 15.9317 122.523 16.1993 121.922 16.39C121.328 16.5807 120.642 16.676 119.865 16.676C119.476 16.676 119.088 16.6393 118.699 16.566C118.31 16.4927 117.933 16.3937 117.566 16.269C117.207 16.1443 116.873 15.9977 116.565 15.829C116.257 15.653 115.993 15.466 115.773 15.268L116.565 14.014C116.653 13.8673 116.763 13.7537 116.895 13.673C117.034 13.585 117.21 13.541 117.423 13.541C117.621 13.541 117.797 13.585 117.951 13.673C118.112 13.761 118.285 13.8563 118.468 13.959C118.651 14.0617 118.864 14.157 119.106 14.245C119.355 14.333 119.667 14.377 120.041 14.377C120.305 14.377 120.529 14.3513 120.712 14.3C120.895 14.2413 121.042 14.1643 121.152 14.069C121.262 13.9737 121.343 13.8673 121.394 13.75C121.445 13.6327 121.471 13.5117 121.471 13.387C121.471 13.1597 121.394 12.9727 121.24 12.826C121.086 12.6793 120.884 12.5547 120.635 12.452C120.386 12.342 120.1 12.243 119.777 12.155C119.462 12.0597 119.139 11.9533 118.809 11.836C118.479 11.7187 118.153 11.5793 117.83 11.418C117.515 11.2493 117.232 11.0403 116.983 10.791C116.734 10.5343 116.532 10.2227 116.378 9.856C116.224 9.48933 116.147 9.04567 116.147 8.525C116.147 8.041 116.239 7.58267 116.422 7.15C116.613 6.71 116.895 6.325 117.269 5.995C117.643 5.665 118.112 5.40467 118.677 5.214C119.242 5.016 119.902 4.917 120.657 4.917C121.068 4.917 121.464 4.95367 121.845 5.027C122.234 5.10033 122.597 5.203 122.934 5.335C123.271 5.467 123.579 5.62467 123.858 5.808C124.137 5.984 124.382 6.17833 124.595 6.391L123.825 7.59Z" fill="#15C0FD"/>
</svg>
