<svg width="309" height="283" viewBox="0 0 309 283" fill="none" xmlns="http://www.w3.org/2000/svg">
<g filter="url(#filter0_d_574_5739)">
<path d="M160.8 19.115C121.83 0.777501 96.5681 27.8271 89.1875 45.8196L87.948 49.9151C90.6051 85.407 54.5186 98.3557 35.3289 99.7113C5.80617 105.922 5.56014 136.189 10.2346 149.252C17.7754 170.325 25.2419 185.114 26.8411 191.768C25.0697 225.19 28.5632 238.968 30.5314 241.679C51.7878 280.129 89.5769 271.256 105.814 262.013C134.156 240.422 156.987 242.172 164.86 245.746C193.202 265.858 218.739 267.189 227.965 265.34C275.791 249.369 267.328 210.87 257.118 193.617C244.423 159.9 262.408 126.577 272.987 114.13C302.509 68.8776 287.01 41.5439 275.57 33.5336C263.761 19.3368 229.072 32.9174 209.882 42.0369C196.228 46.1037 168.427 26.7556 160.8 19.115Z" fill="#16203B" stroke="#1B99D4" stroke-width="2"/>
<path d="M166.761 10.3529C126.271 -8.69808 100.023 19.4041 92.3543 38.0966L91.0666 42.3515C93.8272 79.2244 56.3332 92.6769 36.3949 94.0853C5.72059 100.538 5.46497 131.982 10.3217 145.554C18.1567 167.447 25.9145 182.811 27.576 189.724C25.7356 224.446 29.3654 238.76 31.4103 241.577C53.4958 281.523 92.7589 272.305 109.63 262.702C139.077 240.271 162.799 242.089 170.978 245.802C200.426 266.697 226.959 268.079 236.545 266.159C286.237 249.566 277.444 209.569 266.836 191.645C253.646 156.616 272.331 121.996 283.323 109.065C313.997 62.0518 297.893 33.6546 286.007 25.3325C273.737 10.5834 237.695 24.6924 217.757 34.1667C203.57 38.3918 174.685 18.2909 166.761 10.3529Z" stroke="black" stroke-width="8"/>
<path d="M139.338 164.933V163.548C139.374 157.121 139.977 152.007 141.149 148.207C142.357 144.408 144.061 141.354 146.263 139.045C148.464 136.702 151.146 134.553 154.306 132.6C156.472 131.251 158.408 129.777 160.112 128.179C161.852 126.545 163.219 124.734 164.214 122.746C165.208 120.722 165.705 118.467 165.705 115.981C165.705 113.175 165.048 110.743 163.734 108.683C162.42 106.624 160.645 105.026 158.408 103.889C156.206 102.753 153.738 102.185 151.004 102.185C148.482 102.185 146.085 102.735 143.812 103.836C141.575 104.901 139.711 106.535 138.219 108.737C136.763 110.903 135.947 113.655 135.769 116.993H116.806C116.984 110.246 118.617 104.599 121.707 100.054C124.832 95.5085 128.951 92.0994 134.065 89.8267C139.214 87.554 144.896 86.4176 151.11 86.4176C157.893 86.4176 163.859 87.6072 169.008 89.9865C174.192 92.3658 178.223 95.7571 181.099 100.161C184.011 104.528 185.467 109.713 185.467 115.714C185.467 119.763 184.81 123.385 183.496 126.581C182.218 129.777 180.389 132.618 178.01 135.104C175.631 137.589 172.808 139.809 169.54 141.762C166.664 143.538 164.303 145.384 162.456 147.302C160.645 149.219 159.295 151.474 158.408 154.067C157.555 156.624 157.112 159.784 157.076 163.548V164.933H139.338ZM148.607 198.172C145.411 198.172 142.658 197.036 140.35 194.763C138.042 192.49 136.888 189.72 136.888 186.453C136.888 183.257 138.042 180.523 140.35 178.25C142.658 175.977 145.411 174.841 148.607 174.841C151.767 174.841 154.501 175.977 156.81 178.25C159.153 180.523 160.325 183.257 160.325 186.453C160.325 188.619 159.775 190.59 158.674 192.366C157.609 194.141 156.188 195.562 154.413 196.627C152.673 197.657 150.737 198.172 148.607 198.172Z" fill="white"/>
</g>
<defs>
<filter id="filter0_d_574_5739" x="0" y="0" width="309" height="283" filterUnits="userSpaceOnUse" color-interpolation-filters="sRGB">
<feFlood flood-opacity="0" result="BackgroundImageFix"/>
<feColorMatrix in="SourceAlpha" type="matrix" values="0 0 0 0 0 0 0 0 0 0 0 0 0 0 0 0 0 0 127 0" result="hardAlpha"/>
<feOffset dy="4"/>
<feGaussianBlur stdDeviation="2"/>
<feComposite in2="hardAlpha" operator="out"/>
<feColorMatrix type="matrix" values="0 0 0 0 0 0 0 0 0 0 0 0 0 0 0 0 0 0 0.45 0"/>
<feBlend mode="normal" in2="BackgroundImageFix" result="effect1_dropShadow_574_5739"/>
<feBlend mode="normal" in="SourceGraphic" in2="effect1_dropShadow_574_5739" result="shape"/>
</filter>
</defs>
</svg>
