<svg width="416" height="194" viewBox="0 0 416 194" fill="none" xmlns="http://www.w3.org/2000/svg">
<rect width="416" height="194" fill="#324A8A"/>
<g filter="url(#filter0_d_601_2268)">
<path fill-rule="evenodd" clip-rule="evenodd" d="M205.852 57.3666C207.181 56.6284 208.819 56.6284 210.146 57.3666C216.716 61.0149 236.488 71.9967 243.06 75.645C244.39 76.3813 245.208 77.7453 245.208 79.2216C245.208 86.5183 245.208 108.48 245.208 115.776C245.208 117.253 244.39 118.617 243.06 119.355C236.49 123.003 216.718 133.985 210.146 137.633C208.817 138.372 207.179 138.372 205.852 137.633C199.281 133.985 179.51 123.003 172.938 119.355C171.61 118.617 170.792 117.255 170.792 115.778C170.792 108.482 170.792 86.5202 170.792 79.2236C170.792 77.7472 171.61 76.3832 172.94 75.645C179.508 71.9967 199.283 61.0149 205.852 57.3666Z" fill="#00549D"/>
<path fill-rule="evenodd" clip-rule="evenodd" d="M171.387 117.658C170.866 116.968 170.792 116.313 170.792 115.432C170.792 108.178 170.792 86.342 170.792 79.0861C170.792 77.6174 171.608 76.2612 172.934 75.5288C179.481 71.9018 199.185 60.984 205.732 57.3551C207.058 56.6207 208.854 56.6362 210.18 57.3706C216.726 60.9976 236.364 71.8224 242.911 75.4494C243.44 75.7439 243.843 76.0984 244.204 76.5654L171.387 117.658Z" fill="#0086D4"/>
<path fill-rule="evenodd" clip-rule="evenodd" d="M208 70.375C223.132 70.375 235.417 82.5289 235.417 97.5C235.417 112.471 223.132 124.625 208 124.625C192.868 124.625 180.583 112.471 180.583 97.5C180.583 82.5289 192.868 70.375 208 70.375ZM208 83.9375C215.565 83.9375 221.708 90.0135 221.708 97.5C221.708 104.985 215.565 111.062 208 111.062C200.435 111.062 194.292 104.985 194.292 97.5C194.292 90.0135 200.433 83.9375 208 83.9375Z" fill="white"/>
<path fill-rule="evenodd" clip-rule="evenodd" d="M244.2 76.5847C245.21 77.5205 245.191 78.931 245.191 80.0412C245.191 87.394 245.128 108.307 245.208 115.66C245.216 116.427 244.96 117.235 244.576 117.844L207.203 97.5L244.2 76.5847Z" fill="#0075C0"/>
<path fill-rule="evenodd" clip-rule="evenodd" d="M221.708 91.6875H225.625V103.312H221.708V91.6875ZM235.417 91.6875H239.333V103.312H235.417V91.6875Z" fill="white"/>
<path fill-rule="evenodd" clip-rule="evenodd" d="M217.792 95.5625H229.542V99.4375H217.792V95.5625ZM231.5 95.5625H243.25V99.4375H231.5V95.5625Z" fill="white"/>
</g>
<path d="M324.412 32.0871C324.465 32.0871 324.517 32.0986 324.57 32.1217C324.623 32.1401 324.674 32.1747 324.722 32.2255L325.606 33.2014C325.219 33.7319 324.733 34.1334 324.148 34.4056C323.567 34.6732 322.878 34.807 322.082 34.807C321.352 34.807 320.696 34.6779 320.115 34.4195C319.539 34.1565 319.048 33.7966 318.643 33.3398C318.243 32.8784 317.935 32.3339 317.719 31.7064C317.504 31.0743 317.396 30.3891 317.396 29.6508C317.396 28.8988 317.513 28.2089 317.746 27.5814C317.979 26.9493 318.307 26.4049 318.729 25.9481C319.152 25.4913 319.658 25.136 320.247 24.8822C320.837 24.6284 321.486 24.5016 322.194 24.5016C322.555 24.5016 322.894 24.5362 323.211 24.6054C323.532 24.67 323.831 24.7622 324.108 24.8822C324.385 24.9976 324.641 25.1383 324.874 25.3044C325.107 25.4705 325.314 25.6505 325.494 25.8442L324.742 26.9032C324.693 26.9678 324.636 27.0278 324.57 27.0831C324.504 27.1339 324.412 27.1593 324.293 27.1593C324.214 27.1593 324.139 27.1408 324.069 27.1039C323.998 27.067 323.923 27.0231 323.844 26.9724C323.765 26.917 323.677 26.8593 323.58 26.7994C323.488 26.7348 323.376 26.6771 323.244 26.6263C323.116 26.571 322.964 26.5248 322.788 26.4879C322.617 26.451 322.414 26.4325 322.181 26.4325C321.811 26.4325 321.473 26.5041 321.165 26.6471C320.861 26.7901 320.597 27.0001 320.373 27.2769C320.153 27.5491 319.981 27.886 319.858 28.2874C319.739 28.6842 319.68 29.1387 319.68 29.6508C319.68 30.1676 319.746 30.6267 319.878 31.0281C320.014 31.4296 320.197 31.7687 320.425 32.0455C320.659 32.3178 320.929 32.5254 321.237 32.6684C321.545 32.8114 321.875 32.883 322.227 32.883C322.43 32.883 322.614 32.8737 322.782 32.8553C322.949 32.8322 323.105 32.7976 323.25 32.7515C323.395 32.7007 323.532 32.6362 323.659 32.5577C323.787 32.4746 323.917 32.3708 324.049 32.2462C324.102 32.2001 324.159 32.1632 324.22 32.1355C324.282 32.1032 324.346 32.0871 324.412 32.0871ZM338.55 29.4432C338.396 29.2633 338.229 29.1387 338.049 29.0695C337.868 28.9956 337.679 28.9587 337.481 28.9587C337.292 28.9587 337.118 28.9979 336.96 29.0764C336.801 29.1548 336.663 29.2817 336.544 29.457C336.429 29.6278 336.339 29.8516 336.273 30.1284C336.207 30.4052 336.174 30.7398 336.174 31.132C336.174 31.5103 336.201 31.8287 336.253 32.0871C336.306 32.3455 336.379 32.5554 336.471 32.7169C336.568 32.8737 336.682 32.9868 336.814 33.056C336.946 33.1252 337.094 33.1598 337.257 33.1598C337.406 33.1598 337.54 33.146 337.659 33.1183C337.782 33.086 337.895 33.0422 337.996 32.9868C338.097 32.9314 338.192 32.8622 338.28 32.7792C338.372 32.6915 338.462 32.5923 338.55 32.4816V29.4432ZM340.596 24.3354V34.6963H339.329C339.074 34.6963 338.907 34.5763 338.827 34.3364L338.669 33.7896C338.533 33.9419 338.39 34.0803 338.24 34.2049C338.09 34.3295 337.928 34.4379 337.752 34.5302C337.58 34.6178 337.393 34.6848 337.191 34.7309C336.993 34.7817 336.777 34.807 336.544 34.807C336.187 34.807 335.857 34.724 335.554 34.5579C335.25 34.3918 334.988 34.1519 334.768 33.8381C334.548 33.5243 334.375 33.1414 334.247 32.6892C334.124 32.2324 334.062 31.7133 334.062 31.132C334.062 30.5967 334.133 30.1007 334.273 29.6439C334.414 29.1825 334.612 28.7857 334.867 28.4535C335.127 28.1167 335.437 27.8537 335.798 27.6645C336.159 27.4753 336.557 27.3807 336.993 27.3807C337.349 27.3807 337.648 27.4338 337.89 27.5399C338.132 27.646 338.352 27.7891 338.55 27.969V24.3354H340.596ZM346.499 30.2461C346.499 30.0753 346.477 29.9092 346.433 29.7477C346.394 29.5862 346.326 29.4432 346.229 29.3186C346.136 29.1894 346.013 29.0856 345.859 29.0072C345.705 28.9287 345.518 28.8895 345.298 28.8895C344.911 28.8895 344.607 29.0072 344.387 29.2425C344.167 29.4732 344.022 29.8077 343.952 30.2461H346.499ZM343.925 31.4918C343.991 32.0917 344.165 32.5277 344.447 32.7999C344.728 33.0675 345.091 33.2014 345.536 33.2014C345.773 33.2014 345.978 33.1713 346.15 33.1114C346.321 33.0514 346.473 32.9845 346.605 32.9107C346.741 32.8369 346.865 32.7699 346.975 32.71C347.089 32.65 347.208 32.62 347.331 32.62C347.494 32.62 347.617 32.6823 347.701 32.8069L348.295 33.5751C348.083 33.8288 347.855 34.0365 347.608 34.198C347.366 34.3548 347.115 34.4794 346.856 34.5717C346.601 34.6594 346.343 34.7194 346.084 34.7517C345.828 34.7886 345.584 34.807 345.351 34.807C344.871 34.807 344.42 34.7263 343.998 34.5648C343.58 34.3987 343.213 34.1541 342.896 33.8312C342.583 33.5082 342.335 33.1068 342.15 32.6269C341.97 32.147 341.879 31.5887 341.879 30.952C341.879 30.4721 341.956 30.0177 342.11 29.5886C342.269 29.1594 342.493 28.7834 342.784 28.4604C343.078 28.1374 343.433 27.8814 343.846 27.6922C344.264 27.503 344.735 27.4084 345.259 27.4084C345.712 27.4084 346.125 27.4822 346.499 27.6299C346.878 27.7775 347.201 27.9921 347.47 28.2735C347.742 28.555 347.954 28.9011 348.103 29.3117C348.257 29.7177 348.334 30.1792 348.334 30.6959C348.334 30.8574 348.328 30.9889 348.314 31.0904C348.301 31.1919 348.277 31.2727 348.242 31.3327C348.207 31.3926 348.158 31.4342 348.097 31.4572C348.039 31.4803 347.965 31.4918 347.872 31.4918H343.925Z" fill="white"/>
<path d="M329.62 27.4084C330.139 27.4084 330.612 27.4938 331.039 27.6645C331.465 27.8352 331.831 28.0798 332.134 28.3982C332.442 28.7165 332.68 29.1041 332.847 29.5609C333.019 30.0131 333.104 30.5229 333.104 31.0905C333.104 31.6626 333.019 32.1794 332.847 32.6408C332.68 33.0976 332.442 33.4875 332.134 33.8104C331.831 34.1288 331.465 34.3756 331.039 34.551C330.612 34.7217 330.139 34.8071 329.62 34.8071C329.096 34.8071 328.619 34.7217 328.187 34.551C327.761 34.3756 327.391 34.1288 327.079 33.8104C326.771 33.4875 326.531 33.0976 326.359 32.6408C326.192 32.1794 326.108 31.6626 326.108 31.0905C326.108 30.5229 326.192 30.0131 326.359 29.5609C326.531 29.1041 326.771 28.7165 327.079 28.3982C327.391 28.0798 327.761 27.8352 328.187 27.6645C328.619 27.4938 329.096 27.4084 329.62 27.4084ZM329.62 33.2152C330.09 33.2152 330.436 33.0422 330.656 32.6962C330.88 32.3455 330.992 31.8148 330.992 31.1043C330.992 30.3938 330.88 29.8654 330.656 29.5194C330.436 29.1733 330.09 29.0003 329.62 29.0003C329.136 29.0003 328.781 29.1733 328.557 29.5194C328.333 29.8654 328.22 30.3938 328.22 31.1043C328.22 31.8148 328.333 32.3455 328.557 32.6962C328.781 33.0422 329.136 33.2152 329.62 33.2152Z" fill="#E3C42E"/>
<path d="M351.949 28.6957H352.305C352.635 28.6957 352.873 28.5873 353.018 28.3704L355.183 25.076C355.31 24.9007 355.447 24.7807 355.592 24.7161C355.741 24.6469 355.926 24.6123 356.146 24.6123H358.087L355.235 28.6888C355.033 28.9703 354.815 29.1733 354.582 29.2979C354.749 29.3625 354.901 29.4524 355.037 29.5678C355.174 29.6831 355.301 29.8331 355.42 30.0177L358.324 34.6963H356.331C356.203 34.6963 356.093 34.6871 356.001 34.6686C355.913 34.6502 355.836 34.6225 355.77 34.5856C355.704 34.5486 355.647 34.5048 355.598 34.4541C355.55 34.3987 355.504 34.3364 355.46 34.2672L353.282 30.7582C353.203 30.629 353.101 30.5391 352.978 30.4883C352.859 30.4329 352.697 30.4052 352.49 30.4052H351.949V34.6963H349.718V24.6123H351.949V28.6957ZM362.844 30.2461C362.844 30.0753 362.822 29.9092 362.778 29.7477C362.739 29.5862 362.67 29.4432 362.574 29.3186C362.481 29.1894 362.358 29.0856 362.204 29.0072C362.05 28.9287 361.863 28.8895 361.643 28.8895C361.256 28.8895 360.952 29.0072 360.732 29.2425C360.512 29.4732 360.367 29.8077 360.297 30.2461H362.844ZM360.27 31.4918C360.336 32.0917 360.51 32.5277 360.792 32.7999C361.073 33.0675 361.436 33.2014 361.881 33.2014C362.118 33.2014 362.323 33.1713 362.494 33.1114C362.666 33.0514 362.818 32.9845 362.95 32.9107C363.086 32.8369 363.209 32.7699 363.319 32.71C363.434 32.65 363.553 32.62 363.676 32.62C363.839 32.62 363.962 32.6823 364.045 32.8069L364.639 33.5751C364.428 33.8288 364.199 34.0365 363.953 34.198C363.711 34.3548 363.46 34.4794 363.201 34.5717C362.945 34.6594 362.688 34.7194 362.428 34.7517C362.173 34.7886 361.929 34.807 361.696 34.807C361.216 34.807 360.765 34.7263 360.343 34.5648C359.925 34.3987 359.557 34.1541 359.241 33.8312C358.928 33.5082 358.68 33.1068 358.495 32.6269C358.314 32.147 358.224 31.5887 358.224 30.952C358.224 30.4721 358.301 30.0177 358.455 29.5886C358.614 29.1594 358.838 28.7834 359.128 28.4604C359.423 28.1374 359.777 27.8814 360.191 27.6922C360.609 27.503 361.08 27.4084 361.603 27.4084C362.057 27.4084 362.47 27.4822 362.844 27.6299C363.223 27.7775 363.546 27.9921 363.814 28.2735C364.087 28.555 364.298 28.9011 364.448 29.3117C364.602 29.7177 364.679 30.1792 364.679 30.6959C364.679 30.8574 364.672 30.9889 364.659 31.0904C364.646 31.1919 364.622 31.2727 364.587 31.3327C364.551 31.3926 364.503 31.4342 364.441 31.4572C364.384 31.4803 364.309 31.4918 364.217 31.4918H360.27ZM367.881 28.6265C368.092 28.2389 368.334 27.9344 368.607 27.7129C368.884 27.4915 369.201 27.3807 369.557 27.3807C369.865 27.3807 370.116 27.4569 370.31 27.6091L370.178 29.1871C370.156 29.2886 370.118 29.3578 370.065 29.3948C370.017 29.4317 369.949 29.4501 369.861 29.4501C369.826 29.4501 369.779 29.4478 369.722 29.4432C369.665 29.4386 369.606 29.434 369.544 29.4294C369.482 29.4201 369.419 29.4132 369.353 29.4086C369.291 29.3994 369.234 29.3948 369.181 29.3948C368.882 29.3948 368.642 29.4778 368.462 29.6439C368.286 29.81 368.136 30.0407 368.013 30.336V34.6963H365.967V27.5191H367.181C367.282 27.5191 367.366 27.5284 367.432 27.5468C367.502 27.5653 367.56 27.5953 367.604 27.6368C367.652 27.6737 367.687 27.7245 367.709 27.7891C367.736 27.8537 367.758 27.9321 367.775 28.0244L367.881 28.6265ZM375.319 29.4432C375.165 29.2633 374.998 29.1387 374.818 29.0695C374.637 28.9956 374.448 28.9587 374.25 28.9587C374.061 28.9587 373.887 28.9979 373.729 29.0764C373.57 29.1548 373.432 29.2817 373.313 29.457C373.199 29.6278 373.108 29.8516 373.042 30.1284C372.976 30.4052 372.943 30.7398 372.943 31.132C372.943 31.5103 372.97 31.8287 373.022 32.0871C373.075 32.3455 373.148 32.5554 373.24 32.7169C373.337 32.8737 373.451 32.9868 373.583 33.056C373.715 33.1252 373.863 33.1598 374.026 33.1598C374.175 33.1598 374.309 33.146 374.428 33.1183C374.552 33.086 374.664 33.0422 374.765 32.9868C374.866 32.9314 374.961 32.8622 375.049 32.7792C375.141 32.6915 375.231 32.5923 375.319 32.4816V29.4432ZM377.365 24.3354V34.6963H376.098C375.843 34.6963 375.676 34.5763 375.596 34.3364L375.438 33.7896C375.302 33.9419 375.159 34.0803 375.009 34.2049C374.86 34.3295 374.697 34.4379 374.521 34.5302C374.349 34.6178 374.162 34.6848 373.96 34.7309C373.762 34.7817 373.546 34.807 373.313 34.807C372.956 34.807 372.626 34.724 372.323 34.5579C372.019 34.3918 371.758 34.1519 371.537 33.8381C371.318 33.5243 371.144 33.1414 371.016 32.6892C370.893 32.2324 370.831 31.7133 370.831 31.132C370.831 30.5967 370.902 30.1007 371.042 29.6439C371.183 29.1825 371.381 28.7857 371.636 28.4535C371.896 28.1167 372.206 27.8537 372.567 27.6645C372.928 27.4753 373.326 27.3807 373.762 27.3807C374.118 27.3807 374.417 27.4338 374.659 27.5399C374.901 27.646 375.121 27.7891 375.319 27.969V24.3354H377.365ZM382.167 27.4084C382.686 27.4084 383.158 27.4938 383.586 27.6645C384.012 27.8352 384.378 28.0798 384.681 28.3981C384.989 28.7165 385.227 29.1041 385.394 29.5609C385.566 30.013 385.651 30.5229 385.651 31.0904C385.651 31.6625 385.566 32.1794 385.394 32.6407C385.227 33.0975 384.989 33.4874 384.681 33.8104C384.378 34.1288 384.012 34.3756 383.586 34.551C383.158 34.7217 382.686 34.807 382.167 34.807C381.643 34.807 381.165 34.7217 380.734 34.551C380.307 34.3756 379.938 34.1288 379.626 33.8104C379.317 33.4874 379.078 33.0975 378.906 32.6407C378.739 32.1794 378.655 31.6625 378.655 31.0904C378.655 30.5229 378.739 30.013 378.906 29.5609C379.078 29.1041 379.317 28.7165 379.626 28.3981C379.938 28.0798 380.307 27.8352 380.734 27.6645C381.165 27.4938 381.643 27.4084 382.167 27.4084ZM382.167 33.2152C382.637 33.2152 382.983 33.0422 383.203 32.6961C383.427 32.3455 383.539 31.8148 383.539 31.1043C383.539 30.3937 383.427 29.8654 383.203 29.5193C382.983 29.1733 382.637 29.0003 382.167 29.0003C381.682 29.0003 381.328 29.1733 381.104 29.5193C380.88 29.8654 380.767 30.3937 380.767 31.1043C380.767 31.8148 380.88 32.3455 381.104 32.6961C381.328 33.0422 381.682 33.2152 382.167 33.2152ZM391.295 29.0902C391.242 29.1779 391.185 29.2402 391.123 29.2771C391.066 29.314 390.991 29.3325 390.899 29.3325C390.802 29.3325 390.705 29.3117 390.609 29.2702C390.512 29.224 390.406 29.1756 390.292 29.1248C390.182 29.0741 390.057 29.0279 389.916 28.9864C389.775 28.9403 389.614 28.9172 389.434 28.9172C389.174 28.9172 388.974 28.9703 388.833 29.0764C388.697 29.1779 388.629 29.3209 388.629 29.5055C388.629 29.6393 388.672 29.75 388.761 29.8377C388.853 29.9254 388.974 30.0038 389.124 30.073C389.273 30.1376 389.443 30.1999 389.632 30.2599C389.821 30.3199 390.015 30.3868 390.213 30.4606C390.411 30.5344 390.604 30.6221 390.793 30.7236C390.982 30.8205 391.152 30.9428 391.302 31.0904C391.451 31.2334 391.57 31.4088 391.658 31.6164C391.75 31.8241 391.797 32.0732 391.797 32.3639C391.797 32.7192 391.735 33.0468 391.612 33.3467C391.489 33.6466 391.304 33.905 391.057 34.1219C390.816 34.3387 390.514 34.5071 390.153 34.6271C389.797 34.7471 389.385 34.807 388.919 34.807C388.686 34.807 388.453 34.784 388.219 34.7378C387.986 34.6917 387.76 34.6294 387.54 34.551C387.324 34.4725 387.124 34.3803 386.939 34.2741C386.754 34.1634 386.596 34.0457 386.464 33.9211L386.939 33.1321C386.992 33.0398 387.058 32.9684 387.137 32.9176C387.22 32.8622 387.326 32.8345 387.454 32.8345C387.573 32.8345 387.678 32.8622 387.771 32.9176C387.867 32.973 387.971 33.0329 388.081 33.0975C388.191 33.1622 388.318 33.2221 388.464 33.2775C388.613 33.3329 388.8 33.3605 389.025 33.3605C389.183 33.3605 389.317 33.3444 389.427 33.3121C389.537 33.2752 389.625 33.2267 389.691 33.1667C389.757 33.1068 389.806 33.0398 389.836 32.966C389.867 32.8922 389.883 32.8161 389.883 32.7376C389.883 32.5946 389.836 32.477 389.744 32.3847C389.652 32.2924 389.53 32.214 389.381 32.1494C389.232 32.0801 389.06 32.0178 388.866 31.9625C388.677 31.9025 388.483 31.8356 388.285 31.7618C388.087 31.688 387.892 31.6003 387.698 31.4988C387.509 31.3926 387.339 31.2611 387.19 31.1043C387.04 30.9428 386.919 30.7467 386.827 30.516C386.734 30.2853 386.688 30.0061 386.688 29.6785C386.688 29.374 386.743 29.0856 386.853 28.8134C386.968 28.5365 387.137 28.2943 387.361 28.0867C387.586 27.879 387.867 27.7152 388.206 27.5953C388.545 27.4707 388.941 27.4084 389.394 27.4084C389.641 27.4084 389.878 27.4315 390.107 27.4776C390.34 27.5238 390.558 27.5884 390.76 27.6714C390.963 27.7545 391.147 27.8537 391.315 27.969C391.482 28.0798 391.629 28.202 391.757 28.3358L391.295 29.0902Z" fill="#15C0FD"/>
<defs>
<filter id="filter0_d_601_2268" x="157" y="51" width="102" height="101" filterUnits="userSpaceOnUse" color-interpolation-filters="sRGB">
<feFlood flood-opacity="0" result="BackgroundImageFix"/>
<feColorMatrix in="SourceAlpha" type="matrix" values="0 0 0 0 0 0 0 0 0 0 0 0 0 0 0 0 0 0 127 0" result="hardAlpha"/>
<feOffset dy="4"/>
<feGaussianBlur stdDeviation="2"/>
<feComposite in2="hardAlpha" operator="out"/>
<feColorMatrix type="matrix" values="0 0 0 0 0 0 0 0 0 0 0 0 0 0 0 0 0 0 0.25 0"/>
<feBlend mode="normal" in2="BackgroundImageFix" result="effect1_dropShadow_601_2268"/>
<feBlend mode="normal" in="SourceGraphic" in2="effect1_dropShadow_601_2268" result="shape"/>
</filter>
</defs>
</svg>
