<svg width="416" height="194" viewBox="0 0 416 194" fill="none" xmlns="http://www.w3.org/2000/svg">
<rect width="416" height="194" fill="#324A8A"/>
<g clip-path="url(#clip0_682_980)">
<g filter="url(#filter0_d_682_980)">
<path fill-rule="evenodd" clip-rule="evenodd" d="M205.852 57.3666C207.182 56.6284 208.819 56.6284 210.147 57.3666C216.717 61.0149 236.488 71.9967 243.06 75.645C244.39 76.3813 245.209 77.7453 245.209 79.2216C245.209 86.5183 245.209 108.48 245.209 115.776C245.209 117.253 244.39 118.617 243.06 119.355C236.49 123.003 216.719 133.985 210.147 137.633C208.817 138.372 207.18 138.372 205.852 137.633C199.282 133.985 179.51 123.003 172.938 119.355C171.611 118.617 170.792 117.255 170.792 115.778C170.792 108.482 170.792 86.5202 170.792 79.2236C170.792 77.7472 171.611 76.3832 172.94 75.645C179.509 71.9967 199.284 61.0149 205.852 57.3666Z" fill="#283593"/>
</g>
<g filter="url(#filter1_d_682_980)">
<path fill-rule="evenodd" clip-rule="evenodd" d="M171.387 117.658C170.866 116.968 170.792 116.313 170.792 115.432C170.792 108.178 170.792 86.342 170.792 79.0861C170.792 77.6174 171.609 76.2612 172.934 75.5288C179.481 71.9018 199.186 60.984 205.733 57.3551C207.058 56.6207 208.854 56.6362 210.18 57.3706C216.727 60.9976 236.365 71.8224 242.912 75.4494C243.44 75.7439 243.844 76.0984 244.204 76.5654L171.387 117.658Z" fill="#5C6BC0"/>
</g>
<path fill-rule="evenodd" clip-rule="evenodd" d="M208 70.375C223.132 70.375 235.416 82.5289 235.416 97.5C235.416 112.471 223.132 124.625 208 124.625C192.868 124.625 180.583 112.471 180.583 97.5C180.583 82.5289 192.868 70.375 208 70.375ZM208 83.9375C215.565 83.9375 221.708 90.0135 221.708 97.5C221.708 104.985 215.565 111.062 208 111.062C200.435 111.062 194.291 104.985 194.291 97.5C194.291 90.0135 200.433 83.9375 208 83.9375Z" fill="white"/>
<g filter="url(#filter2_d_682_980)">
<path fill-rule="evenodd" clip-rule="evenodd" d="M244.2 76.585C245.21 77.5208 245.191 78.9313 245.191 80.0415C245.191 87.3943 245.128 108.308 245.208 115.66C245.216 116.428 244.96 117.236 244.576 117.844L207.203 97.5003L244.2 76.585Z" fill="#3949AB"/>
</g>
</g>
<g clip-path="url(#clip1_682_980)">
<path d="M324.411 33.2545C324.464 33.2545 324.517 33.2661 324.57 33.2891C324.623 33.3076 324.673 33.3422 324.722 33.393L325.606 34.3688C325.219 34.8994 324.732 35.3009 324.147 35.5731C323.567 35.8407 322.878 35.9745 322.082 35.9745C321.351 35.9745 320.696 35.8454 320.115 35.5869C319.538 35.3239 319.048 34.964 318.643 34.5073C318.243 34.0459 317.935 33.5014 317.719 32.8739C317.503 32.2417 317.396 31.5565 317.396 30.8183C317.396 30.0662 317.512 29.3764 317.745 28.7489C317.979 28.1168 318.306 27.5723 318.729 27.1155C319.151 26.6588 319.657 26.3035 320.247 26.0497C320.836 25.7959 321.485 25.669 322.194 25.669C322.555 25.669 322.893 25.7036 323.21 25.7729C323.531 25.8375 323.831 25.9297 324.108 26.0497C324.385 26.165 324.64 26.3058 324.873 26.4719C325.107 26.638 325.313 26.8179 325.494 27.0117L324.741 28.0707C324.693 28.1353 324.636 28.1952 324.57 28.2506C324.504 28.3014 324.411 28.3267 324.293 28.3267C324.213 28.3267 324.138 28.3083 324.068 28.2714C323.998 28.2344 323.923 28.1906 323.844 28.1399C323.765 28.0845 323.676 28.0268 323.58 27.9668C323.487 27.9022 323.375 27.8446 323.243 27.7938C323.115 27.7384 322.964 27.6923 322.788 27.6554C322.616 27.6185 322.414 27.6 322.181 27.6C321.811 27.6 321.472 27.6715 321.164 27.8146C320.861 27.9576 320.597 28.1675 320.372 28.4444C320.152 28.7166 319.981 29.0534 319.857 29.4549C319.739 29.8517 319.679 30.3062 319.679 30.8183C319.679 31.3351 319.745 31.7942 319.877 32.1956C320.014 32.597 320.196 32.9362 320.425 33.213C320.658 33.4853 320.929 33.6929 321.237 33.8359C321.545 33.9789 321.875 34.0505 322.227 34.0505C322.429 34.0505 322.614 34.0412 322.781 34.0228C322.948 33.9997 323.105 33.9651 323.25 33.919C323.395 33.8682 323.531 33.8036 323.659 33.7252C323.787 33.6421 323.916 33.5383 324.048 33.4137C324.101 33.3676 324.158 33.3307 324.22 33.303C324.282 33.2707 324.345 33.2545 324.411 33.2545ZM338.55 30.6107C338.396 30.4307 338.228 30.3062 338.048 30.2369C337.868 30.1631 337.678 30.1262 337.48 30.1262C337.291 30.1262 337.117 30.1654 336.959 30.2439C336.801 30.3223 336.662 30.4492 336.543 30.6245C336.429 30.7952 336.339 31.019 336.273 31.2959C336.207 31.5727 336.174 31.9073 336.174 32.2994C336.174 32.6778 336.2 32.9961 336.253 33.2545C336.306 33.5129 336.378 33.7228 336.471 33.8844C336.567 34.0412 336.682 34.1543 336.814 34.2235C336.946 34.2927 337.093 34.3273 337.256 34.3273C337.406 34.3273 337.54 34.3135 337.659 34.2858C337.782 34.2535 337.894 34.2097 337.995 34.1543C338.096 34.0989 338.191 34.0297 338.279 33.9466C338.371 33.859 338.462 33.7598 338.55 33.649V30.6107ZM340.596 25.5029V35.8638H339.328C339.073 35.8638 338.906 35.7438 338.827 35.5039L338.668 34.9571C338.532 35.1094 338.389 35.2478 338.239 35.3724C338.09 35.497 337.927 35.6054 337.751 35.6977C337.579 35.7853 337.392 35.8523 337.19 35.8984C336.992 35.9492 336.776 35.9745 336.543 35.9745C336.187 35.9745 335.857 35.8915 335.553 35.7254C335.25 35.5593 334.988 35.3194 334.768 35.0056C334.548 34.6918 334.374 34.3089 334.246 33.8567C334.123 33.3999 334.062 32.8808 334.062 32.2994C334.062 31.7642 334.132 31.2682 334.273 30.8114C334.414 30.35 334.612 29.9532 334.867 29.621C335.126 29.2841 335.437 29.0211 335.797 28.832C336.158 28.6428 336.556 28.5482 336.992 28.5482C337.348 28.5482 337.648 28.6013 337.89 28.7074C338.132 28.8135 338.352 28.9565 338.55 29.1365V25.5029H340.596ZM346.499 31.4135C346.499 31.2428 346.477 31.0767 346.433 30.9152C346.393 30.7537 346.325 30.6107 346.228 30.4861C346.136 30.3569 346.013 30.2531 345.859 30.1747C345.705 30.0962 345.518 30.057 345.298 30.057C344.911 30.057 344.607 30.1747 344.387 30.41C344.167 30.6407 344.022 30.9752 343.951 31.4135H346.499ZM343.925 32.6593C343.991 33.2591 344.165 33.6952 344.446 33.9674C344.728 34.235 345.091 34.3688 345.535 34.3688C345.773 34.3688 345.978 34.3388 346.149 34.2789C346.321 34.2189 346.473 34.152 346.605 34.0781C346.741 34.0043 346.864 33.9374 346.974 33.8774C347.089 33.8175 347.207 33.7875 347.331 33.7875C347.493 33.7875 347.617 33.8498 347.7 33.9743L348.294 34.7426C348.083 34.9963 347.854 35.204 347.608 35.3655C347.366 35.5223 347.115 35.6469 346.855 35.7392C346.6 35.8269 346.343 35.8869 346.083 35.9192C345.828 35.9561 345.584 35.9745 345.351 35.9745C344.871 35.9745 344.42 35.8938 343.998 35.7323C343.58 35.5662 343.212 35.3216 342.895 34.9987C342.583 34.6757 342.334 34.2743 342.15 33.7944C341.969 33.3145 341.879 32.7562 341.879 32.1195C341.879 31.6396 341.956 31.1851 342.11 30.756C342.268 30.3269 342.493 29.9509 342.783 29.6279C343.078 29.3049 343.432 29.0488 343.846 28.8597C344.264 28.6705 344.735 28.5759 345.258 28.5759C345.711 28.5759 346.125 28.6497 346.499 28.7974C346.877 28.945 347.201 29.1596 347.469 29.441C347.742 29.7225 347.953 30.0685 348.103 30.4792C348.257 30.8852 348.334 31.3466 348.334 31.8634C348.334 32.0249 348.327 32.1564 348.314 32.2579C348.301 32.3594 348.277 32.4402 348.241 32.5001C348.206 32.5601 348.158 32.6016 348.096 32.6247C348.039 32.6478 347.964 32.6593 347.872 32.6593H343.925Z" fill="white"/>
<path d="M329.62 28.5759C330.139 28.5759 330.612 28.6613 331.039 28.832C331.465 29.0027 331.831 29.2473 332.134 29.5656C332.442 29.884 332.68 30.2716 332.847 30.7284C333.019 31.1806 333.104 31.6904 333.104 32.2579C333.104 32.8301 333.019 33.3469 332.847 33.8083C332.68 34.2651 332.442 34.655 332.134 34.9779C331.831 35.2963 331.465 35.5431 331.039 35.7185C330.612 35.8892 330.139 35.9746 329.62 35.9746C329.096 35.9746 328.619 35.8892 328.187 35.7185C327.761 35.5431 327.391 35.2963 327.079 34.9779C326.771 34.655 326.531 34.2651 326.359 33.8083C326.192 33.3469 326.108 32.8301 326.108 32.2579C326.108 31.6904 326.192 31.1806 326.359 30.7284C326.531 30.2716 326.771 29.884 327.079 29.5656C327.391 29.2473 327.761 29.0027 328.187 28.832C328.619 28.6613 329.096 28.5759 329.62 28.5759ZM329.62 34.3827C330.09 34.3827 330.436 34.2097 330.656 33.8636C330.88 33.513 330.992 32.9823 330.992 32.2718C330.992 31.5612 330.88 31.0329 330.656 30.6869C330.436 30.3408 330.09 30.1678 329.62 30.1678C329.136 30.1678 328.781 30.3408 328.557 30.6869C328.333 31.0329 328.22 31.5612 328.22 32.2718C328.22 32.9823 328.333 33.513 328.557 33.8636C328.781 34.2097 329.136 34.3827 329.62 34.3827Z" fill="#E3C42E"/>
<path d="M351.949 29.8632H352.305C352.635 29.8632 352.873 29.7548 353.018 29.5379L355.183 26.2435C355.31 26.0681 355.447 25.9482 355.592 25.8836C355.741 25.8144 355.926 25.7798 356.146 25.7798H358.087L355.235 29.8563C355.033 30.1377 354.815 30.3408 354.582 30.4653C354.749 30.5299 354.901 30.6199 355.037 30.7353C355.174 30.8506 355.301 31.0006 355.42 31.1851L358.324 35.8638H356.331C356.203 35.8638 356.093 35.8545 356.001 35.8361C355.913 35.8177 355.836 35.79 355.77 35.7531C355.704 35.7161 355.647 35.6723 355.598 35.6216C355.55 35.5662 355.504 35.5039 355.46 35.4347L353.282 31.9257C353.203 31.7965 353.101 31.7065 352.978 31.6558C352.859 31.6004 352.697 31.5727 352.49 31.5727H351.949V35.8638H349.718V25.7798H351.949V29.8632ZM362.844 31.4135C362.844 31.2428 362.822 31.0767 362.778 30.9152C362.739 30.7537 362.67 30.6107 362.574 30.4861C362.481 30.3569 362.358 30.2531 362.204 30.1747C362.05 30.0962 361.863 30.057 361.643 30.057C361.256 30.057 360.952 30.1747 360.732 30.41C360.512 30.6407 360.367 30.9752 360.297 31.4135H362.844ZM360.27 32.6593C360.336 33.2591 360.51 33.6952 360.792 33.9674C361.073 34.235 361.436 34.3688 361.881 34.3688C362.118 34.3688 362.323 34.3388 362.494 34.2789C362.666 34.2189 362.818 34.152 362.95 34.0781C363.086 34.0043 363.209 33.9374 363.319 33.8774C363.434 33.8175 363.553 33.7875 363.676 33.7875C363.839 33.7875 363.962 33.8498 364.045 33.9743L364.639 34.7426C364.428 34.9963 364.199 35.204 363.953 35.3655C363.711 35.5223 363.46 35.6469 363.201 35.7392C362.945 35.8269 362.688 35.8869 362.428 35.9192C362.173 35.9561 361.929 35.9745 361.696 35.9745C361.216 35.9745 360.765 35.8938 360.343 35.7323C359.925 35.5662 359.557 35.3216 359.241 34.9987C358.928 34.6757 358.68 34.2743 358.495 33.7944C358.314 33.3145 358.224 32.7562 358.224 32.1195C358.224 31.6396 358.301 31.1851 358.455 30.756C358.614 30.3269 358.838 29.9509 359.128 29.6279C359.423 29.3049 359.777 29.0488 360.191 28.8597C360.609 28.6705 361.08 28.5759 361.603 28.5759C362.057 28.5759 362.47 28.6497 362.844 28.7974C363.223 28.945 363.546 29.1596 363.814 29.441C364.087 29.7225 364.298 30.0685 364.448 30.4792C364.602 30.8852 364.679 31.3466 364.679 31.8634C364.679 32.0249 364.672 32.1564 364.659 32.2579C364.646 32.3594 364.622 32.4402 364.587 32.5001C364.551 32.5601 364.503 32.6016 364.441 32.6247C364.384 32.6478 364.309 32.6593 364.217 32.6593H360.27ZM367.881 29.794C368.092 29.4064 368.334 29.1019 368.607 28.8804C368.884 28.6589 369.201 28.5482 369.557 28.5482C369.865 28.5482 370.116 28.6243 370.31 28.7766L370.178 30.3546C370.156 30.4561 370.118 30.5253 370.065 30.5622C370.017 30.5992 369.949 30.6176 369.861 30.6176C369.826 30.6176 369.779 30.6153 369.722 30.6107C369.665 30.6061 369.606 30.6015 369.544 30.5968C369.482 30.5876 369.419 30.5807 369.353 30.5761C369.291 30.5669 369.234 30.5622 369.181 30.5622C368.882 30.5622 368.642 30.6453 368.462 30.8114C368.286 30.9775 368.136 31.2082 368.013 31.5035V35.8638H365.967V28.6866H367.181C367.282 28.6866 367.366 28.6959 367.432 28.7143C367.502 28.7328 367.56 28.7628 367.604 28.8043C367.652 28.8412 367.687 28.892 367.709 28.9565C367.736 29.0211 367.758 29.0996 367.775 29.1919L367.881 29.794ZM375.319 30.6107C375.165 30.4307 374.998 30.3062 374.818 30.2369C374.637 30.1631 374.448 30.1262 374.25 30.1262C374.061 30.1262 373.887 30.1654 373.729 30.2439C373.57 30.3223 373.432 30.4492 373.313 30.6245C373.199 30.7952 373.108 31.019 373.042 31.2959C372.976 31.5727 372.943 31.9073 372.943 32.2994C372.943 32.6778 372.97 32.9961 373.022 33.2545C373.075 33.5129 373.148 33.7228 373.24 33.8844C373.337 34.0412 373.451 34.1543 373.583 34.2235C373.715 34.2927 373.863 34.3273 374.026 34.3273C374.175 34.3273 374.309 34.3135 374.428 34.2858C374.552 34.2535 374.664 34.2097 374.765 34.1543C374.866 34.0989 374.961 34.0297 375.049 33.9466C375.141 33.859 375.231 33.7598 375.319 33.649V30.6107ZM377.365 25.5029V35.8638H376.098C375.843 35.8638 375.676 35.7438 375.596 35.5039L375.438 34.9571C375.302 35.1094 375.159 35.2478 375.009 35.3724C374.86 35.497 374.697 35.6054 374.521 35.6977C374.349 35.7853 374.162 35.8523 373.96 35.8984C373.762 35.9492 373.546 35.9745 373.313 35.9745C372.956 35.9745 372.626 35.8915 372.323 35.7254C372.019 35.5593 371.758 35.3194 371.537 35.0056C371.318 34.6918 371.144 34.3089 371.016 33.8567C370.893 33.3999 370.831 32.8808 370.831 32.2994C370.831 31.7642 370.902 31.2682 371.042 30.8114C371.183 30.35 371.381 29.9532 371.636 29.621C371.896 29.2841 372.206 29.0211 372.567 28.832C372.928 28.6428 373.326 28.5482 373.762 28.5482C374.118 28.5482 374.417 28.6013 374.659 28.7074C374.901 28.8135 375.121 28.9565 375.319 29.1365V25.5029H377.365ZM382.167 28.5759C382.686 28.5759 383.158 28.6613 383.586 28.832C384.012 29.0027 384.378 29.2472 384.681 29.5656C384.989 29.884 385.227 30.2716 385.394 30.7283C385.566 31.1805 385.651 31.6904 385.651 32.2579C385.651 32.83 385.566 33.3468 385.394 33.8082C385.227 34.265 384.989 34.6549 384.681 34.9779C384.378 35.2963 384.012 35.5431 383.586 35.7184C383.158 35.8891 382.686 35.9745 382.167 35.9745C381.643 35.9745 381.165 35.8891 380.734 35.7184C380.307 35.5431 379.938 35.2963 379.626 34.9779C379.317 34.6549 379.078 34.265 378.906 33.8082C378.739 33.3468 378.655 32.83 378.655 32.2579C378.655 31.6904 378.739 31.1805 378.906 30.7283C379.078 30.2716 379.317 29.884 379.626 29.5656C379.938 29.2472 380.307 29.0027 380.734 28.832C381.165 28.6613 381.643 28.5759 382.167 28.5759ZM382.167 34.3827C382.637 34.3827 382.983 34.2097 383.203 33.8636C383.427 33.5129 383.539 32.9823 383.539 32.2717C383.539 31.5612 383.427 31.0329 383.203 30.6868C382.983 30.3408 382.637 30.1677 382.167 30.1677C381.682 30.1677 381.328 30.3408 381.104 30.6868C380.88 31.0329 380.767 31.5612 380.767 32.2717C380.767 32.9823 380.88 33.5129 381.104 33.8636C381.328 34.2097 381.682 34.3827 382.167 34.3827ZM391.295 30.2577C391.242 30.3454 391.185 30.4077 391.123 30.4446C391.066 30.4815 390.991 30.5 390.899 30.5C390.802 30.5 390.705 30.4792 390.609 30.4377C390.512 30.3915 390.406 30.3431 390.292 30.2923C390.182 30.2416 390.057 30.1954 389.916 30.1539C389.775 30.1078 389.614 30.0847 389.434 30.0847C389.174 30.0847 388.974 30.1377 388.833 30.2439C388.697 30.3454 388.629 30.4884 388.629 30.673C388.629 30.8068 388.672 30.9175 388.761 31.0052C388.853 31.0929 388.974 31.1713 389.124 31.2405C389.273 31.3051 389.443 31.3674 389.632 31.4274C389.821 31.4873 390.015 31.5543 390.213 31.6281C390.411 31.7019 390.604 31.7896 390.793 31.8911C390.982 31.988 391.152 32.1102 391.302 32.2579C391.451 32.4009 391.57 32.5763 391.658 32.7839C391.75 32.9915 391.797 33.2407 391.797 33.5314C391.797 33.8867 391.735 34.2142 391.612 34.5142C391.489 34.8141 391.304 35.0725 391.057 35.2893C390.816 35.5062 390.514 35.6746 390.153 35.7946C389.797 35.9146 389.385 35.9745 388.919 35.9745C388.686 35.9745 388.453 35.9514 388.219 35.9053C387.986 35.8592 387.76 35.7969 387.54 35.7184C387.324 35.64 387.124 35.5477 386.939 35.4416C386.754 35.3309 386.596 35.2132 386.464 35.0886L386.939 34.2996C386.992 34.2073 387.058 34.1358 387.137 34.0851C387.22 34.0297 387.326 34.002 387.454 34.002C387.573 34.002 387.678 34.0297 387.771 34.0851C387.867 34.1404 387.971 34.2004 388.081 34.265C388.191 34.3296 388.318 34.3896 388.464 34.445C388.613 34.5003 388.8 34.528 389.025 34.528C389.183 34.528 389.317 34.5119 389.427 34.4796C389.537 34.4426 389.625 34.3942 389.691 34.3342C389.757 34.2743 389.806 34.2073 389.836 34.1335C389.867 34.0597 389.883 33.9836 389.883 33.9051C389.883 33.7621 389.836 33.6445 389.744 33.5521C389.652 33.4598 389.53 33.3814 389.381 33.3168C389.232 33.2476 389.06 33.1853 388.866 33.13C388.677 33.07 388.483 33.0031 388.285 32.9293C388.087 32.8554 387.892 32.7677 387.698 32.6662C387.509 32.5601 387.339 32.4286 387.19 32.2717C387.04 32.1102 386.919 31.9142 386.827 31.6835C386.734 31.4528 386.688 31.1736 386.688 30.846C386.688 30.5415 386.743 30.2531 386.853 29.9809C386.968 29.704 387.137 29.4618 387.361 29.2542C387.586 29.0465 387.867 28.8827 388.206 28.7628C388.545 28.6382 388.941 28.5759 389.394 28.5759C389.641 28.5759 389.878 28.599 390.107 28.6451C390.34 28.6912 390.558 28.7558 390.76 28.8389C390.963 28.9219 391.147 29.0211 391.315 29.1365C391.482 29.2472 391.629 29.3695 391.757 29.5033L391.295 30.2577Z" fill="#15C0FD"/>
</g>
<defs>
<filter id="filter0_d_682_980" x="166.792" y="56.813" width="82.417" height="89.374" filterUnits="userSpaceOnUse" color-interpolation-filters="sRGB">
<feFlood flood-opacity="0" result="BackgroundImageFix"/>
<feColorMatrix in="SourceAlpha" type="matrix" values="0 0 0 0 0 0 0 0 0 0 0 0 0 0 0 0 0 0 127 0" result="hardAlpha"/>
<feOffset dy="4"/>
<feGaussianBlur stdDeviation="2"/>
<feComposite in2="hardAlpha" operator="out"/>
<feColorMatrix type="matrix" values="0 0 0 0 0 0 0 0 0 0 0 0 0 0 0 0 0 0 0.25 0"/>
<feBlend mode="normal" in2="BackgroundImageFix" result="effect1_dropShadow_682_980"/>
<feBlend mode="normal" in="SourceGraphic" in2="effect1_dropShadow_682_980" result="shape"/>
</filter>
<filter id="filter1_d_682_980" x="166.792" y="56.812" width="81.4121" height="68.8457" filterUnits="userSpaceOnUse" color-interpolation-filters="sRGB">
<feFlood flood-opacity="0" result="BackgroundImageFix"/>
<feColorMatrix in="SourceAlpha" type="matrix" values="0 0 0 0 0 0 0 0 0 0 0 0 0 0 0 0 0 0 127 0" result="hardAlpha"/>
<feOffset dy="4"/>
<feGaussianBlur stdDeviation="2"/>
<feComposite in2="hardAlpha" operator="out"/>
<feColorMatrix type="matrix" values="0 0 0 0 0 0 0 0 0 0 0 0 0 0 0 0 0 0 0.25 0"/>
<feBlend mode="normal" in2="BackgroundImageFix" result="effect1_dropShadow_682_980"/>
<feBlend mode="normal" in="SourceGraphic" in2="effect1_dropShadow_682_980" result="shape"/>
</filter>
<filter id="filter2_d_682_980" x="203.203" y="76.585" width="46.0059" height="49.259" filterUnits="userSpaceOnUse" color-interpolation-filters="sRGB">
<feFlood flood-opacity="0" result="BackgroundImageFix"/>
<feColorMatrix in="SourceAlpha" type="matrix" values="0 0 0 0 0 0 0 0 0 0 0 0 0 0 0 0 0 0 127 0" result="hardAlpha"/>
<feOffset dy="4"/>
<feGaussianBlur stdDeviation="2"/>
<feComposite in2="hardAlpha" operator="out"/>
<feColorMatrix type="matrix" values="0 0 0 0 0 0 0 0 0 0 0 0 0 0 0 0 0 0 0.25 0"/>
<feBlend mode="normal" in2="BackgroundImageFix" result="effect1_dropShadow_682_980"/>
<feBlend mode="normal" in="SourceGraphic" in2="effect1_dropShadow_682_980" result="shape"/>
</filter>
<clipPath id="clip0_682_980">
<rect width="94" height="93" fill="white" transform="translate(161 51)"/>
</clipPath>
<clipPath id="clip1_682_980">
<rect width="75" height="11.3254" fill="white" transform="translate(317 25.1675)"/>
</clipPath>
</defs>
</svg>
