<svg width="416" height="194" viewBox="0 0 416 194" fill="none" xmlns="http://www.w3.org/2000/svg">
<rect width="416" height="194" fill="#324A8A"/>
<path d="M324.412 32.0866C324.465 32.0866 324.517 32.0981 324.57 32.1212C324.623 32.1396 324.674 32.1742 324.722 32.225L325.606 33.2009C325.219 33.7315 324.733 34.1329 324.148 34.4051C323.567 34.6727 322.878 34.8066 322.082 34.8066C321.352 34.8066 320.696 34.6774 320.115 34.419C319.539 34.156 319.048 33.7961 318.643 33.3393C318.243 32.8779 317.935 32.3334 317.719 31.7059C317.504 31.0738 317.396 30.3886 317.396 29.6504C317.396 28.8983 317.513 28.2085 317.746 27.5809C317.979 26.9488 318.307 26.4044 318.729 25.9476C319.152 25.4908 319.658 25.1355 320.247 24.8817C320.837 24.628 321.486 24.5011 322.194 24.5011C322.555 24.5011 322.894 24.5357 323.211 24.6049C323.532 24.6695 323.831 24.7618 324.108 24.8817C324.385 24.9971 324.641 25.1378 324.874 25.3039C325.107 25.47 325.314 25.65 325.494 25.8438L324.742 26.9027C324.693 26.9673 324.636 27.0273 324.57 27.0826C324.504 27.1334 324.412 27.1588 324.293 27.1588C324.214 27.1588 324.139 27.1403 324.069 27.1034C323.998 27.0665 323.923 27.0227 323.844 26.9719C323.765 26.9165 323.677 26.8588 323.58 26.7989C323.488 26.7343 323.376 26.6766 323.244 26.6258C323.116 26.5705 322.964 26.5243 322.788 26.4874C322.617 26.4505 322.414 26.432 322.181 26.432C321.811 26.432 321.473 26.5036 321.165 26.6466C320.861 26.7896 320.597 26.9996 320.373 27.2764C320.153 27.5487 319.981 27.8855 319.858 28.2869C319.739 28.6837 319.68 29.1382 319.68 29.6504C319.68 30.1671 319.746 30.6262 319.878 31.0276C320.014 31.4291 320.197 31.7682 320.425 32.045C320.659 32.3173 320.929 32.5249 321.237 32.6679C321.545 32.811 321.875 32.8825 322.227 32.8825C322.43 32.8825 322.614 32.8732 322.782 32.8548C322.949 32.8317 323.105 32.7971 323.25 32.751C323.395 32.7002 323.532 32.6357 323.659 32.5572C323.787 32.4742 323.917 32.3703 324.049 32.2458C324.102 32.1996 324.159 32.1627 324.22 32.135C324.282 32.1027 324.346 32.0866 324.412 32.0866ZM338.55 29.4427C338.396 29.2628 338.229 29.1382 338.049 29.069C337.868 28.9952 337.679 28.9582 337.481 28.9582C337.292 28.9582 337.118 28.9975 336.96 29.0759C336.801 29.1543 336.663 29.2812 336.544 29.4566C336.429 29.6273 336.339 29.8511 336.273 30.1279C336.207 30.4047 336.174 30.7393 336.174 31.1315C336.174 31.5098 336.201 31.8282 336.253 32.0866C336.306 32.345 336.379 32.5549 336.471 32.7164C336.568 32.8732 336.682 32.9863 336.814 33.0555C336.946 33.1247 337.094 33.1593 337.257 33.1593C337.406 33.1593 337.54 33.1455 337.659 33.1178C337.782 33.0855 337.895 33.0417 337.996 32.9863C338.097 32.9309 338.192 32.8617 338.28 32.7787C338.372 32.691 338.462 32.5918 338.55 32.4811V29.4427ZM340.596 24.335V34.6958H339.329C339.074 34.6958 338.907 34.5758 338.827 34.3359L338.669 33.7892C338.533 33.9414 338.39 34.0798 338.24 34.2044C338.09 34.329 337.928 34.4374 337.752 34.5297C337.58 34.6174 337.393 34.6843 337.191 34.7304C336.993 34.7812 336.777 34.8066 336.544 34.8066C336.187 34.8066 335.857 34.7235 335.554 34.5574C335.25 34.3913 334.988 34.1514 334.768 33.8376C334.548 33.5238 334.375 33.1409 334.247 32.6887C334.124 32.2319 334.062 31.7128 334.062 31.1315C334.062 30.5962 334.133 30.1002 334.273 29.6434C334.414 29.182 334.612 28.7852 334.867 28.453C335.127 28.1162 335.437 27.8532 335.798 27.664C336.159 27.4748 336.557 27.3802 336.993 27.3802C337.349 27.3802 337.648 27.4333 337.89 27.5394C338.132 27.6455 338.352 27.7886 338.55 27.9685V24.335H340.596ZM346.499 30.2456C346.499 30.0748 346.477 29.9087 346.433 29.7472C346.394 29.5858 346.326 29.4427 346.229 29.3181C346.136 29.1889 346.013 29.0851 345.859 29.0067C345.705 28.9283 345.518 28.889 345.298 28.889C344.911 28.889 344.607 29.0067 344.387 29.242C344.167 29.4727 344.022 29.8072 343.952 30.2456H346.499ZM343.925 31.4914C343.991 32.0912 344.165 32.5272 344.447 32.7994C344.728 33.067 345.091 33.2009 345.536 33.2009C345.773 33.2009 345.978 33.1709 346.15 33.1109C346.321 33.0509 346.473 32.984 346.605 32.9102C346.741 32.8364 346.865 32.7694 346.975 32.7095C347.089 32.6495 347.208 32.6195 347.331 32.6195C347.494 32.6195 347.617 32.6818 347.701 32.8064L348.295 33.5746C348.083 33.8284 347.855 34.036 347.608 34.1975C347.366 34.3544 347.115 34.4789 346.856 34.5712C346.601 34.6589 346.343 34.7189 346.084 34.7512C345.828 34.7881 345.584 34.8066 345.351 34.8066C344.871 34.8066 344.42 34.7258 343.998 34.5643C343.58 34.3982 343.213 34.1536 342.896 33.8307C342.583 33.5077 342.335 33.1063 342.15 32.6264C341.97 32.1465 341.879 31.5883 341.879 30.9515C341.879 30.4716 341.956 30.0172 342.11 29.5881C342.269 29.159 342.493 28.7829 342.784 28.4599C343.078 28.1369 343.433 27.8809 343.846 27.6917C344.264 27.5025 344.735 27.4079 345.259 27.4079C345.712 27.4079 346.125 27.4817 346.499 27.6294C346.878 27.777 347.201 27.9916 347.47 28.2731C347.742 28.5545 347.954 28.9006 348.103 29.3112C348.257 29.7173 348.334 30.1787 348.334 30.6954C348.334 30.8569 348.328 30.9884 348.314 31.0899C348.301 31.1914 348.277 31.2722 348.242 31.3322C348.207 31.3921 348.158 31.4337 348.097 31.4568C348.039 31.4798 347.965 31.4914 347.872 31.4914H343.925Z" fill="white"/>
<path d="M329.62 27.4082C330.139 27.4082 330.612 27.4936 331.039 27.6643C331.465 27.835 331.831 28.0795 332.134 28.3979C332.442 28.7163 332.68 29.1039 332.847 29.5607C333.019 30.0128 333.104 30.5227 333.104 31.0902C333.104 31.6623 333.019 32.1792 332.847 32.6405C332.68 33.0973 332.442 33.4872 332.134 33.8102C331.831 34.1286 331.465 34.3754 331.039 34.5508C330.612 34.7215 330.139 34.8068 329.62 34.8068C329.096 34.8068 328.619 34.7215 328.187 34.5508C327.761 34.3754 327.391 34.1286 327.079 33.8102C326.771 33.4872 326.531 33.0973 326.359 32.6405C326.192 32.1792 326.108 31.6623 326.108 31.0902C326.108 30.5227 326.192 30.0128 326.359 29.5607C326.531 29.1039 326.771 28.7163 327.079 28.3979C327.391 28.0795 327.761 27.835 328.187 27.6643C328.619 27.4936 329.096 27.4082 329.62 27.4082ZM329.62 33.215C330.09 33.215 330.436 33.042 330.656 32.6959C330.88 32.3453 330.992 31.8146 330.992 31.1041C330.992 30.3935 330.88 29.8652 330.656 29.5191C330.436 29.1731 330.09 29.0001 329.62 29.0001C329.136 29.0001 328.781 29.1731 328.557 29.5191C328.333 29.8652 328.22 30.3935 328.22 31.1041C328.22 31.8146 328.333 32.3453 328.557 32.6959C328.781 33.042 329.136 33.215 329.62 33.215Z" fill="#E3C42E"/>
<path d="M351.949 28.6952H352.305C352.635 28.6952 352.873 28.5868 353.018 28.37L355.183 25.0755C355.31 24.9002 355.447 24.7802 355.592 24.7156C355.741 24.6464 355.926 24.6118 356.146 24.6118H358.087L355.235 28.6883C355.033 28.9698 354.815 29.1728 354.582 29.2974C354.749 29.362 354.901 29.4519 355.037 29.5673C355.174 29.6826 355.301 29.8326 355.42 30.0172L358.324 34.6958H356.331C356.203 34.6958 356.093 34.6866 356.001 34.6681C355.913 34.6497 355.836 34.622 355.77 34.5851C355.704 34.5481 355.647 34.5044 355.598 34.4536C355.55 34.3982 355.504 34.3359 355.46 34.2667L353.282 30.7577C353.203 30.6286 353.101 30.5386 352.978 30.4878C352.859 30.4324 352.697 30.4047 352.49 30.4047H351.949V34.6958H349.718V24.6118H351.949V28.6952ZM362.844 30.2456C362.844 30.0748 362.822 29.9087 362.778 29.7472C362.739 29.5858 362.67 29.4427 362.574 29.3181C362.481 29.1889 362.358 29.0851 362.204 29.0067C362.05 28.9283 361.863 28.889 361.643 28.889C361.256 28.889 360.952 29.0067 360.732 29.242C360.512 29.4727 360.367 29.8072 360.297 30.2456H362.844ZM360.27 31.4914C360.336 32.0912 360.51 32.5272 360.792 32.7994C361.073 33.067 361.436 33.2009 361.881 33.2009C362.118 33.2009 362.323 33.1709 362.494 33.1109C362.666 33.0509 362.818 32.984 362.95 32.9102C363.086 32.8364 363.209 32.7694 363.319 32.7095C363.434 32.6495 363.553 32.6195 363.676 32.6195C363.839 32.6195 363.962 32.6818 364.045 32.8064L364.639 33.5746C364.428 33.8284 364.199 34.036 363.953 34.1975C363.711 34.3544 363.46 34.4789 363.201 34.5712C362.945 34.6589 362.688 34.7189 362.428 34.7512C362.173 34.7881 361.929 34.8066 361.696 34.8066C361.216 34.8066 360.765 34.7258 360.343 34.5643C359.925 34.3982 359.557 34.1536 359.241 33.8307C358.928 33.5077 358.68 33.1063 358.495 32.6264C358.314 32.1465 358.224 31.5883 358.224 30.9515C358.224 30.4716 358.301 30.0172 358.455 29.5881C358.614 29.159 358.838 28.7829 359.128 28.4599C359.423 28.1369 359.777 27.8809 360.191 27.6917C360.609 27.5025 361.08 27.4079 361.603 27.4079C362.057 27.4079 362.47 27.4817 362.844 27.6294C363.223 27.777 363.546 27.9916 363.814 28.2731C364.087 28.5545 364.298 28.9006 364.448 29.3112C364.602 29.7173 364.679 30.1787 364.679 30.6954C364.679 30.8569 364.672 30.9884 364.659 31.0899C364.646 31.1914 364.622 31.2722 364.587 31.3322C364.551 31.3921 364.503 31.4337 364.441 31.4568C364.384 31.4798 364.309 31.4914 364.217 31.4914H360.27ZM367.881 28.626C368.092 28.2385 368.334 27.9339 368.607 27.7124C368.884 27.491 369.201 27.3802 369.557 27.3802C369.865 27.3802 370.116 27.4564 370.31 27.6086L370.178 29.1866C370.156 29.2881 370.118 29.3574 370.065 29.3943C370.017 29.4312 369.949 29.4496 369.861 29.4496C369.826 29.4496 369.779 29.4473 369.722 29.4427C369.665 29.4381 369.606 29.4335 369.544 29.4289C369.482 29.4196 369.419 29.4127 369.353 29.4081C369.291 29.3989 369.234 29.3943 369.181 29.3943C368.882 29.3943 368.642 29.4773 368.462 29.6434C368.286 29.8095 368.136 30.0402 368.013 30.3355V34.6958H365.967V27.5187H367.181C367.282 27.5187 367.366 27.5279 367.432 27.5463C367.502 27.5648 367.56 27.5948 367.604 27.6363C367.652 27.6732 367.687 27.724 367.709 27.7886C367.736 27.8532 367.758 27.9316 367.775 28.0239L367.881 28.626ZM375.319 29.4427C375.165 29.2628 374.998 29.1382 374.818 29.069C374.637 28.9952 374.448 28.9582 374.25 28.9582C374.061 28.9582 373.887 28.9975 373.729 29.0759C373.57 29.1543 373.432 29.2812 373.313 29.4566C373.199 29.6273 373.108 29.8511 373.042 30.1279C372.976 30.4047 372.943 30.7393 372.943 31.1315C372.943 31.5098 372.97 31.8282 373.022 32.0866C373.075 32.345 373.148 32.5549 373.24 32.7164C373.337 32.8732 373.451 32.9863 373.583 33.0555C373.715 33.1247 373.863 33.1593 374.026 33.1593C374.175 33.1593 374.309 33.1455 374.428 33.1178C374.552 33.0855 374.664 33.0417 374.765 32.9863C374.866 32.9309 374.961 32.8617 375.049 32.7787C375.141 32.691 375.231 32.5918 375.319 32.4811V29.4427ZM377.365 24.335V34.6958H376.098C375.843 34.6958 375.676 34.5758 375.596 34.3359L375.438 33.7892C375.302 33.9414 375.159 34.0798 375.009 34.2044C374.86 34.329 374.697 34.4374 374.521 34.5297C374.349 34.6174 374.162 34.6843 373.96 34.7304C373.762 34.7812 373.546 34.8066 373.313 34.8066C372.956 34.8066 372.626 34.7235 372.323 34.5574C372.019 34.3913 371.758 34.1514 371.537 33.8376C371.318 33.5238 371.144 33.1409 371.016 32.6887C370.893 32.2319 370.831 31.7128 370.831 31.1315C370.831 30.5962 370.902 30.1002 371.042 29.6434C371.183 29.182 371.381 28.7852 371.636 28.453C371.896 28.1162 372.206 27.8532 372.567 27.664C372.928 27.4748 373.326 27.3802 373.762 27.3802C374.118 27.3802 374.417 27.4333 374.659 27.5394C374.901 27.6455 375.121 27.7886 375.319 27.9685V24.335H377.365ZM382.167 27.4079C382.686 27.4079 383.158 27.4933 383.586 27.664C384.012 27.8347 384.378 28.0793 384.681 28.3976C384.989 28.716 385.227 29.1036 385.394 29.5604C385.566 30.0126 385.651 30.5224 385.651 31.0899C385.651 31.6621 385.566 32.1789 385.394 32.6403C385.227 33.097 384.989 33.487 384.681 33.8099C384.378 34.1283 384.012 34.3751 383.586 34.5505C383.158 34.7212 382.686 34.8066 382.167 34.8066C381.643 34.8066 381.165 34.7212 380.734 34.5505C380.307 34.3751 379.938 34.1283 379.626 33.8099C379.317 33.487 379.078 33.097 378.906 32.6403C378.739 32.1789 378.655 31.6621 378.655 31.0899C378.655 30.5224 378.739 30.0126 378.906 29.5604C379.078 29.1036 379.317 28.716 379.626 28.3976C379.938 28.0793 380.307 27.8347 380.734 27.664C381.165 27.4933 381.643 27.4079 382.167 27.4079ZM382.167 33.2147C382.637 33.2147 382.983 33.0417 383.203 32.6956C383.427 32.345 383.539 31.8143 383.539 31.1038C383.539 30.3932 383.427 29.8649 383.203 29.5189C382.983 29.1728 382.637 28.9998 382.167 28.9998C381.682 28.9998 381.328 29.1728 381.104 29.5189C380.88 29.8649 380.767 30.3932 380.767 31.1038C380.767 31.8143 380.88 32.345 381.104 32.6956C381.328 33.0417 381.682 33.2147 382.167 33.2147ZM391.295 29.0897C391.242 29.1774 391.185 29.2397 391.123 29.2766C391.066 29.3135 390.991 29.332 390.899 29.332C390.802 29.332 390.705 29.3112 390.609 29.2697C390.512 29.2236 390.406 29.1751 390.292 29.1244C390.182 29.0736 390.057 29.0275 389.916 28.9859C389.775 28.9398 389.614 28.9167 389.434 28.9167C389.174 28.9167 388.974 28.9698 388.833 29.0759C388.697 29.1774 388.629 29.3204 388.629 29.505C388.629 29.6388 388.672 29.7496 388.761 29.8372C388.853 29.9249 388.974 30.0033 389.124 30.0725C389.273 30.1371 389.443 30.1994 389.632 30.2594C389.821 30.3194 390.015 30.3863 390.213 30.4601C390.411 30.5339 390.604 30.6216 390.793 30.7231C390.982 30.82 391.152 30.9423 391.302 31.0899C391.451 31.233 391.57 31.4083 391.658 31.6159C391.75 31.8236 391.797 32.0727 391.797 32.3634C391.797 32.7187 391.735 33.0463 391.612 33.3462C391.489 33.6461 391.304 33.9045 391.057 34.1214C390.816 34.3383 390.514 34.5066 390.153 34.6266C389.797 34.7466 389.385 34.8066 388.919 34.8066C388.686 34.8066 388.453 34.7835 388.219 34.7373C387.986 34.6912 387.76 34.6289 387.54 34.5505C387.324 34.472 387.124 34.3798 386.939 34.2736C386.754 34.1629 386.596 34.0452 386.464 33.9207L386.939 33.1317C386.992 33.0394 387.058 32.9679 387.137 32.9171C387.22 32.8617 387.326 32.834 387.454 32.834C387.573 32.834 387.678 32.8617 387.771 32.9171C387.867 32.9725 387.971 33.0324 388.081 33.097C388.191 33.1617 388.318 33.2216 388.464 33.277C388.613 33.3324 388.8 33.3601 389.025 33.3601C389.183 33.3601 389.317 33.3439 389.427 33.3116C389.537 33.2747 389.625 33.2262 389.691 33.1663C389.757 33.1063 389.806 33.0394 389.836 32.9655C389.867 32.8917 389.883 32.8156 389.883 32.7372C389.883 32.5941 389.836 32.4765 389.744 32.3842C389.652 32.2919 389.53 32.2135 389.381 32.1489C389.232 32.0797 389.06 32.0174 388.866 31.962C388.677 31.902 388.483 31.8351 388.285 31.7613C388.087 31.6875 387.892 31.5998 387.698 31.4983C387.509 31.3921 387.339 31.2606 387.19 31.1038C387.04 30.9423 386.919 30.7462 386.827 30.5155C386.734 30.2848 386.688 30.0056 386.688 29.678C386.688 29.3735 386.743 29.0851 386.853 28.8129C386.968 28.5361 387.137 28.2938 387.361 28.0862C387.586 27.8786 387.867 27.7148 388.206 27.5948C388.545 27.4702 388.941 27.4079 389.394 27.4079C389.641 27.4079 389.878 27.431 390.107 27.4771C390.34 27.5233 390.558 27.5879 390.76 27.6709C390.963 27.754 391.147 27.8532 391.315 27.9685C391.482 28.0793 391.629 28.2015 391.757 28.3353L391.295 29.0897Z" fill="#15C0FD"/>
<g clip-path="url(#clip0_602_6136)">
<g filter="url(#filter0_d_602_6136)">
<path d="M108.542 77.208H73.125L76.25 112.625L90.8333 116.791L105.417 112.625L108.542 77.208Z" fill="#E65100"/>
</g>
<path d="M90.8331 80.333V113.562L102.5 110.229L105.104 80.333H90.8331Z" fill="#FF6D00"/>
<path d="M90.8331 98.042V93.8753H99.7915L99.0623 105.854L90.8331 108.563V104.188L95.104 102.729L95.4165 98.042H90.8331ZM100.104 89.7087L100.416 85.542H90.8331V89.7087H100.104Z" fill="white"/>
<path d="M90.8332 104.188V108.563L82.604 105.854L82.1873 100.125H86.354L86.5623 102.729L90.8332 104.188ZM85.729 89.7087H90.8332V85.542H81.354L82.0832 98.042H90.8332V93.8753H86.0415L85.729 89.7087Z" fill="#EEEEEE"/>
</g>
<g clip-path="url(#clip1_602_6136)">
<g filter="url(#filter1_d_602_6136)">
<path d="M160.625 77.208H125.209L128.334 112.625L142.917 116.791L157.5 112.625L160.625 77.208Z" fill="#0277BD"/>
</g>
<path d="M142.917 80.333V113.562L154.583 110.229L157.188 80.333H142.917Z" fill="#039BE5"/>
<path d="M152.396 85.542H142.917V89.7087H148.021L147.708 93.8753H142.917V98.042H147.5L147.188 102.729L142.917 104.188V108.563L151.146 105.854L151.875 93.8753L152.396 85.542Z" fill="white"/>
<path d="M142.917 85.542V89.7087H133.646L133.333 85.542H142.917ZM138.125 93.8753L138.333 98.042H142.917V93.8753H138.125ZM138.542 100.125H134.375L134.688 105.854L142.917 108.563V104.188L138.646 102.729L138.542 100.125Z" fill="#EEEEEE"/>
</g>
<g clip-path="url(#clip2_602_6136)">
<g filter="url(#filter2_d_602_6136)">
<path d="M212.482 77.4877C212.318 77.3095 212.088 77.208 211.845 77.208H178.153C177.911 77.208 177.681 77.3095 177.517 77.4877C177.353 77.6658 177.273 77.905 177.294 78.1451L180.33 112.072C180.362 112.427 180.609 112.725 180.952 112.824L194.758 116.759C194.835 116.78 194.915 116.791 194.994 116.791C195.073 116.791 195.154 116.78 195.23 116.759L209.048 112.824C209.391 112.725 209.639 112.427 209.671 112.072L212.704 78.1451C212.726 77.905 212.645 77.6658 212.482 77.4877ZM183.789 100.445L189.825 102.116V84.9526H193.275V107.326L183.789 104.7V100.445ZM206.256 94.4182L205.347 104.959L196.724 107.326V103.367L202.544 101.77L202.76 98.5434L196.724 99.5812V84.9526H207.072L206.774 88.3946H200.173V95.2787L206.256 94.4182Z" fill="#E3C42E"/>
</g>
</g>
<g clip-path="url(#clip3_602_6136)">
<path d="M261.5 89.709V104.292" stroke="#919191" stroke-width="2.08333" stroke-linecap="round" stroke-linejoin="round"/>
<path d="M254.208 97H268.792" stroke="#919191" stroke-width="2.08333" stroke-linecap="round" stroke-linejoin="round"/>
</g>
<g clip-path="url(#clip4_602_6136)">
<g filter="url(#filter3_d_602_6136)">
<path d="M326.507 117.972C325.945 117.972 325.388 117.826 324.895 117.542L319.764 114.503C318.998 114.074 319.372 113.923 319.624 113.835C320.646 113.478 320.853 113.397 321.944 112.777C322.058 112.711 322.208 112.735 322.326 112.804L326.268 115.144C326.41 115.221 326.613 115.221 326.744 115.144L342.114 106.271C342.256 106.19 342.349 106.026 342.349 105.856V88.1205C342.349 87.9433 342.257 87.7857 342.111 87.6975L326.748 78.8322C326.606 78.748 326.417 78.748 326.275 78.8322L310.914 87.6966C310.765 87.7808 310.67 87.9463 310.67 88.1156V105.852C310.67 106.022 310.762 106.183 310.909 106.264L315.118 108.695C317.403 109.837 318.8 108.491 318.8 107.137V89.6324C318.8 89.3827 318.996 89.1898 319.246 89.1898H321.193C321.436 89.1898 321.635 89.3817 321.635 89.6324V107.146C321.635 110.193 319.974 111.944 317.084 111.944C316.195 111.944 315.495 111.944 313.541 110.982L309.508 108.659C308.512 108.081 307.896 107.003 307.896 105.853V88.1166C307.896 86.9622 308.512 85.8851 309.507 85.3152L324.894 76.4391C325.867 75.8888 327.16 75.8888 328.126 76.4391L343.493 85.3191C344.484 85.892 345.104 86.9661 345.104 88.1205V105.857C345.104 107.008 344.484 108.081 343.492 108.659L328.125 117.534C327.633 117.819 327.075 117.965 326.506 117.965" fill="#21A366"/>
</g>
<path d="M331.255 105.75C324.53 105.75 323.12 102.663 323.12 100.074C323.12 99.8283 323.319 99.6315 323.565 99.6315H325.551C325.77 99.6315 325.956 99.7911 325.99 100.008C326.289 102.03 327.182 103.051 331.249 103.051C334.488 103.051 335.866 102.319 335.866 100.601C335.866 99.612 335.473 98.8776 330.441 98.3851C326.232 97.9699 323.631 97.0426 323.631 93.6762C323.631 90.5752 326.247 88.7285 330.629 88.7285C335.55 88.7285 337.989 90.4372 338.297 94.1071C338.309 94.2344 338.263 94.3568 338.177 94.4498C338.093 94.5379 337.974 94.5918 337.85 94.5918H335.854C335.646 94.5918 335.465 94.4459 335.423 94.2451C334.942 92.1174 333.78 91.4369 330.621 91.4369C327.085 91.4369 326.674 92.6677 326.674 93.5911C326.674 94.7102 327.159 95.0373 331.929 95.6688C336.654 96.2955 338.897 97.1807 338.897 100.501C338.897 103.848 336.104 105.768 331.233 105.768" fill="#21A366"/>
</g>
<defs>
<filter id="filter0_d_602_6136" x="69.125" y="77.208" width="43.4166" height="47.583" filterUnits="userSpaceOnUse" color-interpolation-filters="sRGB">
<feFlood flood-opacity="0" result="BackgroundImageFix"/>
<feColorMatrix in="SourceAlpha" type="matrix" values="0 0 0 0 0 0 0 0 0 0 0 0 0 0 0 0 0 0 127 0" result="hardAlpha"/>
<feOffset dy="4"/>
<feGaussianBlur stdDeviation="2"/>
<feComposite in2="hardAlpha" operator="out"/>
<feColorMatrix type="matrix" values="0 0 0 0 0 0 0 0 0 0 0 0 0 0 0 0 0 0 0.25 0"/>
<feBlend mode="normal" in2="BackgroundImageFix" result="effect1_dropShadow_602_6136"/>
<feBlend mode="normal" in="SourceGraphic" in2="effect1_dropShadow_602_6136" result="shape"/>
</filter>
<filter id="filter1_d_602_6136" x="121.209" y="77.208" width="43.4166" height="47.583" filterUnits="userSpaceOnUse" color-interpolation-filters="sRGB">
<feFlood flood-opacity="0" result="BackgroundImageFix"/>
<feColorMatrix in="SourceAlpha" type="matrix" values="0 0 0 0 0 0 0 0 0 0 0 0 0 0 0 0 0 0 127 0" result="hardAlpha"/>
<feOffset dy="4"/>
<feGaussianBlur stdDeviation="2"/>
<feComposite in2="hardAlpha" operator="out"/>
<feColorMatrix type="matrix" values="0 0 0 0 0 0 0 0 0 0 0 0 0 0 0 0 0 0 0.25 0"/>
<feBlend mode="normal" in2="BackgroundImageFix" result="effect1_dropShadow_602_6136"/>
<feBlend mode="normal" in="SourceGraphic" in2="effect1_dropShadow_602_6136" result="shape"/>
</filter>
<filter id="filter2_d_602_6136" x="173.291" y="77.208" width="43.4166" height="47.583" filterUnits="userSpaceOnUse" color-interpolation-filters="sRGB">
<feFlood flood-opacity="0" result="BackgroundImageFix"/>
<feColorMatrix in="SourceAlpha" type="matrix" values="0 0 0 0 0 0 0 0 0 0 0 0 0 0 0 0 0 0 127 0" result="hardAlpha"/>
<feOffset dy="4"/>
<feGaussianBlur stdDeviation="2"/>
<feComposite in2="hardAlpha" operator="out"/>
<feColorMatrix type="matrix" values="0 0 0 0 0 0 0 0 0 0 0 0 0 0 0 0 0 0 0.25 0"/>
<feBlend mode="normal" in2="BackgroundImageFix" result="effect1_dropShadow_602_6136"/>
<feBlend mode="normal" in="SourceGraphic" in2="effect1_dropShadow_602_6136" result="shape"/>
</filter>
<filter id="filter3_d_602_6136" x="303.896" y="76.0264" width="45.2084" height="49.9463" filterUnits="userSpaceOnUse" color-interpolation-filters="sRGB">
<feFlood flood-opacity="0" result="BackgroundImageFix"/>
<feColorMatrix in="SourceAlpha" type="matrix" values="0 0 0 0 0 0 0 0 0 0 0 0 0 0 0 0 0 0 127 0" result="hardAlpha"/>
<feOffset dy="4"/>
<feGaussianBlur stdDeviation="2"/>
<feComposite in2="hardAlpha" operator="out"/>
<feColorMatrix type="matrix" values="0 0 0 0 0 0 0 0 0 0 0 0 0 0 0 0 0 0 0.25 0"/>
<feBlend mode="normal" in2="BackgroundImageFix" result="effect1_dropShadow_602_6136"/>
<feBlend mode="normal" in="SourceGraphic" in2="effect1_dropShadow_602_6136" result="shape"/>
</filter>
<clipPath id="clip0_602_6136">
<rect width="50" height="50" fill="white" transform="translate(65.8333 72)"/>
</clipPath>
<clipPath id="clip1_602_6136">
<rect width="50" height="50" fill="white" transform="translate(117.917 72)"/>
</clipPath>
<clipPath id="clip2_602_6136">
<rect width="50" height="50" fill="white" transform="translate(170 72)"/>
</clipPath>
<clipPath id="clip3_602_6136">
<rect width="25" height="25" fill="white" transform="translate(249 84.5)"/>
</clipPath>
<clipPath id="clip4_602_6136">
<rect width="47" height="47" fill="white" transform="translate(303 73.5)"/>
</clipPath>
</defs>
</svg>
